<svg xmlns="http://www.w3.org/2000/svg" xmlns:xlink="http://www.w3.org/1999/xlink" aria-hidden="true" role="img" class="iconify iconify--logos" width="35.93" height="32" preserveAspectRatio="xMidYMid meet" viewBox="0 0 32 32" fill="white">
<path d="M1.824 6.056h8.68c0.080 0 0.144-0.032 0.2-0.080l0.832-0.816c0.24-0.232 0.568-0.36 0.912-0.36h13.168c0.616 0 1.184 0.296 1.52 0.792l1.584 2.312c0.224 0.328 0.24 0.744 0.056 1.096-0.192 0.344-0.56 0.56-0.968 0.56h-6.784v0.672h3.472c0.92 0 1.752 0.528 2.112 1.36l2.040 4.656 1.784 0.696c0.952 0.368 1.568 1.256 1.568 2.256v4.312c0 0.64-0.544 1.168-1.2 1.168h-2.072c-0.24 1.424-1.52 2.52-3.048 2.52s-2.8-1.096-3.048-2.52h-11.336c-0.248 1.424-1.52 2.52-3.048 2.52s-2.8-1.096-3.048-2.52h-4.144c-0.584 0-1.056-0.472-1.056-1.040v-15.8c0-0.984 0.816-1.784 1.824-1.784zM25.68 26.208c1.144 0 2.080-0.904 2.080-2.024s-0.936-2.024-2.080-2.024c-1.144 0-2.080 0.904-2.080 2.024s0.936 2.024 2.080 2.024zM21.024 23.696h1.608c0.008-0.032 0.016-0.056 0.016-0.080 0.008-0.016 0.008-0.032 0.008-0.048 0.008-0.040 0.024-0.072 0.032-0.112 0-0.008 0-0.016 0-0.024 0.016-0.048 0.032-0.096 0.040-0.136 0.008-0.016 0.016-0.024 0.016-0.040 0.008-0.032 0.024-0.064 0.032-0.096 0.008-0.016 0.016-0.032 0.024-0.048 0.008-0.024 0.016-0.056 0.032-0.080 0.008-0.016 0.016-0.040 0.024-0.056 0.008-0.024 0.016-0.048 0.032-0.072 0.008-0.016 0.016-0.040 0.024-0.056 0.016-0.024 0.024-0.048 0.040-0.072 0.008-0.016 0.016-0.032 0.032-0.048 0.008-0.024 0.024-0.048 0.040-0.072 0.008-0.016 0.016-0.032 0.032-0.048 0.016-0.024 0.024-0.048 0.040-0.072 0.016-0.016 0.024-0.032 0.032-0.048 0.016-0.024 0.040-0.048 0.056-0.072 0.008-0.016 0.016-0.024 0.032-0.040 0.024-0.032 0.048-0.064 0.072-0.096 0.008 0 0.008-0.008 0.016-0.008 0.024-0.040 0.056-0.072 0.088-0.104 0.008-0.016 0.024-0.024 0.032-0.032 0.024-0.024 0.040-0.048 0.064-0.072 0.016-0.008 0.032-0.024 0.040-0.040 0.024-0.016 0.040-0.032 0.064-0.056 0.016-0.008 0.032-0.024 0.040-0.040 0.024-0.016 0.048-0.032 0.064-0.048l0.048-0.040c0.024-0.016 0.040-0.032 0.064-0.048 0.016-0.016 0.032-0.024 0.048-0.032 0.024-0.016 0.048-0.032 0.072-0.048 0.016-0.016 0.032-0.024 0.048-0.032 0.024-0.016 0.048-0.032 0.072-0.048 0.016-0.008 0.032-0.024 0.048-0.032 0.024-0.016 0.056-0.032 0.080-0.040 0.016-0.008 0.024-0.016 0.040-0.024 0.040-0.024 0.080-0.040 0.12-0.064 0 0 0.008 0 0.008 0 0.040-0.024 0.088-0.040 0.128-0.056 0.016-0.008 0.032-0.016 0.048-0.024 0.024-0.008 0.056-0.016 0.088-0.032 0.016-0.008 0.032-0.008 0.056-0.016s0.048-0.024 0.080-0.032c0.016 0 0.040-0.008 0.056-0.016 0.032-0.008 0.056-0.016 0.080-0.024 0.024 0 0.040-0.008 0.064-0.008 0.024-0.008 0.056-0.016 0.080-0.024 0.024 0 0.040-0.008 0.064-0.008 0.024-0.008 0.056-0.016 0.088-0.016 0.016-0.008 0.040-0.008 0.056-0.008 0.032-0.008 0.064-0.008 0.088-0.016 0.024 0 0.040 0 0.064-0.008 0.032 0 0.064 0 0.096-0.008 0.016 0 0.032 0 0.048 0 0.048 0 0.104 0 0.152 0s0.104 0 0.152 0c0.016 0 0.032 0 0.048 0 0.032 0.008 0.072 0.008 0.104 0.008 0.016 0.008 0.040 0.008 0.056 0.008 0.032 0.008 0.056 0.008 0.088 0.016 0.024 0 0.040 0 0.064 0.008 0.024 0 0.056 0.008 0.080 0.016 0.024 0 0.040 0.008 0.064 0.008 0.024 0.008 0.056 0.016 0.080 0.024 0.024 0 0.040 0.008 0.064 0.008 0.024 0.008 0.056 0.016 0.080 0.024 0.016 0.008 0.040 0.016 0.056 0.016 0.032 0.008 0.056 0.024 0.088 0.032 0.016 0.008 0.032 0.008 0.048 0.016 0.032 0.016 0.064 0.024 0.096 0.032 0.008 0.008 0.024 0.016 0.040 0.024 0.040 0.016 0.088 0.032 0.128 0.056 0.008 0 0.008 0 0.008 0 0.040 0.024 0.080 0.040 0.12 0.064 0.016 0.008 0.024 0.016 0.040 0.024 0.032 0.008 0.056 0.024 0.080 0.040 0.016 0.008 0.032 0.024 0.048 0.032 0.024 0.016 0.048 0.032 0.072 0.048 0.016 0.008 0.040 0.016 0.056 0.032s0.040 0.032 0.064 0.048c0.016 0.008 0.032 0.016 0.048 0.032 0.024 0.016 0.040 0.032 0.064 0.048l0.048 0.040c0.024 0.016 0.040 0.032 0.064 0.048 0.016 0.016 0.024 0.032 0.040 0.040 0.024 0.024 0.040 0.040 0.064 0.056 0.016 0.016 0.024 0.032 0.040 0.040 0.024 0.024 0.048 0.048 0.064 0.072 0.016 0.008 0.024 0.016 0.032 0.032 0.032 0.032 0.064 0.064 0.096 0.104 0 0 0.008 0.008 0.008 0.008 0.024 0.032 0.048 0.064 0.080 0.096 0.008 0.016 0.016 0.024 0.024 0.040 0.016 0.024 0.040 0.048 0.056 0.072 0.008 0.016 0.016 0.032 0.032 0.048 0.016 0.024 0.032 0.048 0.048 0.072 0.008 0.016 0.016 0.032 0.024 0.048 0.016 0.024 0.032 0.048 0.048 0.072 0.008 0.016 0.016 0.032 0.024 0.048 0.016 0.024 0.024 0.048 0.040 0.072 0.008 0.016 0.016 0.040 0.024 0.056 0.016 0.024 0.024 0.048 0.040 0.072 0.008 0.016 0.016 0.040 0.016 0.056 0.016 0.024 0.024 0.056 0.040 0.080 0 0.016 0.008 0.032 0.016 0.048 0.008 0.032 0.024 0.064 0.032 0.096 0.008 0.016 0.008 0.024 0.016 0.040 0.016 0.040 0.024 0.088 0.040 0.136 0 0.008 0 0.016 0 0.024 0.016 0.040 0.024 0.072 0.032 0.112 0 0.016 0.008 0.032 0.008 0.048 0.008 0.024 0.008 0.048 0.016 0.080h2.072c0.104 0 0.184-0.088 0.184-0.184v-2.064h-0.784v-0.984h0.784v-1.264c0-0.6-0.36-1.128-0.928-1.344l-1.888-0.736h-7.144v6.576zM21.024 16.136h6.472l-1.816-4.16c-0.2-0.464-0.664-0.76-1.184-0.76h-3.472v4.92zM8.248 26.208c1.144 0 2.080-0.904 2.080-2.024s-0.936-2.024-2.080-2.024c-0.032 0-0.072 0-0.104 0-0.96 0.048-1.744 0.728-1.928 1.616-0.008 0.032-0.016 0.064-0.024 0.104-0.008 0.064-0.016 0.128-0.016 0.2-0.008 0.032-0.008 0.072-0.008 0.104 0 1.12 0.936 2.024 2.080 2.024zM1.008 20.464h0.784v0.984h-0.784v2.192c0 0.032 0.024 0.056 0.048 0.056h4.144c0.008-0.032 0.008-0.056 0.016-0.080 0-0.016 0.008-0.032 0.008-0.048 0.008-0.040 0.016-0.072 0.032-0.112 0-0.008 0-0.016 0-0.024 0.016-0.048 0.032-0.088 0.040-0.136 0.008-0.016 0.016-0.032 0.016-0.040 0.008-0.032 0.024-0.064 0.032-0.096 0.008-0.016 0.016-0.032 0.024-0.048 0.008-0.024 0.016-0.056 0.032-0.080 0.008-0.016 0.016-0.040 0.024-0.056 0.008-0.024 0.016-0.048 0.032-0.072 0.008-0.016 0.016-0.040 0.024-0.056 0.016-0.024 0.024-0.048 0.040-0.072 0.008-0.016 0.016-0.032 0.032-0.048 0.008-0.024 0.024-0.048 0.040-0.072 0.008-0.016 0.016-0.032 0.032-0.048 0.008-0.024 0.024-0.048 0.040-0.072 0.016-0.016 0.024-0.032 0.032-0.048 0.016-0.024 0.040-0.048 0.056-0.072 0.008-0.016 0.016-0.024 0.032-0.040 0.024-0.032 0.048-0.064 0.072-0.088 0-0.008 0.008-0.016 0.008-0.016 0.032-0.040 0.064-0.072 0.096-0.104 0.008-0.016 0.024-0.024 0.032-0.032 0.024-0.024 0.040-0.048 0.064-0.072 0.016-0.008 0.024-0.024 0.040-0.040 0.024-0.016 0.040-0.032 0.064-0.056 0.016-0.008 0.032-0.024 0.040-0.040 0.024-0.016 0.048-0.032 0.064-0.048s0.032-0.024 0.048-0.040c0.024-0.016 0.040-0.032 0.064-0.048 0.016-0.016 0.032-0.024 0.048-0.032 0.024-0.016 0.048-0.032 0.072-0.048 0.016-0.016 0.032-0.024 0.048-0.032 0.024-0.016 0.048-0.032 0.072-0.048 0.016-0.008 0.032-0.024 0.048-0.032 0.024-0.016 0.048-0.032 0.080-0.040 0.016-0.008 0.024-0.016 0.040-0.024 0.040-0.024 0.080-0.040 0.12-0.064 0 0 0.008 0 0.008 0 0.040-0.024 0.088-0.040 0.128-0.056 0.016-0.008 0.032-0.016 0.048-0.024 0.024-0.008 0.056-0.016 0.088-0.032 0.016-0.008 0.032-0.008 0.056-0.016s0.048-0.024 0.080-0.032c0.016 0 0.040-0.008 0.056-0.016 0.032-0.008 0.056-0.016 0.080-0.024 0.024 0 0.040-0.008 0.064-0.008 0.024-0.008 0.056-0.016 0.080-0.024 0.024 0 0.040-0.008 0.064-0.008 0.024-0.008 0.056-0.016 0.080-0.016 0.024-0.008 0.040-0.008 0.064-0.008 0.032-0.008 0.056-0.008 0.088-0.016 0.024 0 0.040 0 0.056-0.008 0.040 0 0.072 0 0.104-0.008 0.016 0 0.032 0 0.048 0 0.048 0 0.104 0 0.152 0s0.104 0 0.152 0c0.016 0 0.032 0 0.048 0 0.032 0.008 0.064 0.008 0.104 0.008 0.016 0.008 0.032 0.008 0.056 0.008 0.032 0.008 0.056 0.008 0.088 0.016 0.024 0 0.040 0 0.064 0.008 0.024 0 0.056 0.008 0.080 0.016 0.024 0 0.040 0.008 0.064 0.008 0.024 0.008 0.056 0.016 0.080 0.024 0.024 0 0.040 0.008 0.064 0.008 0.024 0.008 0.056 0.016 0.080 0.024 0.016 0.008 0.040 0.016 0.056 0.016 0.032 0.008 0.056 0.024 0.088 0.032 0.016 0.008 0.032 0.008 0.048 0.016 0.032 0.016 0.064 0.024 0.096 0.032 0.008 0.008 0.024 0.016 0.040 0.024 0.040 0.016 0.088 0.032 0.128 0.056 0.008 0 0.008 0 0.008 0 0.040 0.024 0.080 0.040 0.12 0.064 0.016 0.008 0.024 0.016 0.040 0.024 0.032 0.008 0.056 0.024 0.080 0.040 0.016 0.008 0.032 0.024 0.048 0.032 0.024 0.016 0.048 0.032 0.072 0.048 0.016 0.008 0.032 0.016 0.056 0.032 0.016 0.016 0.040 0.032 0.064 0.048 0.016 0.008 0.032 0.016 0.048 0.032 0.024 0.016 0.040 0.032 0.064 0.048 0.016 0.016 0.032 0.024 0.048 0.040s0.040 0.032 0.064 0.048c0.008 0.016 0.024 0.032 0.040 0.040 0.024 0.024 0.040 0.040 0.064 0.056 0.016 0.016 0.024 0.032 0.040 0.040 0.024 0.024 0.048 0.048 0.064 0.072 0.016 0.008 0.024 0.016 0.032 0.032 0.032 0.032 0.064 0.064 0.096 0.104 0 0 0.008 0.008 0.008 0.008 0.024 0.032 0.048 0.064 0.072 0.096 0.016 0.016 0.024 0.024 0.032 0.040 0.016 0.024 0.040 0.048 0.056 0.072 0.008 0.016 0.016 0.032 0.032 0.048 0.016 0.024 0.032 0.048 0.040 0.072 0.016 0.016 0.024 0.032 0.032 0.048 0.016 0.024 0.032 0.048 0.040 0.072 0.016 0.016 0.024 0.032 0.032 0.048 0.016 0.024 0.024 0.048 0.040 0.072 0.008 0.016 0.016 0.040 0.024 0.056 0.016 0.024 0.024 0.048 0.032 0.072 0.008 0.016 0.016 0.040 0.024 0.056 0.016 0.024 0.024 0.056 0.040 0.080 0 0.016 0.008 0.032 0.016 0.048 0.008 0.032 0.024 0.064 0.032 0.096 0.008 0.016 0.008 0.024 0.016 0.040 0.008 0.040 0.024 0.088 0.040 0.136 0 0.008 0 0.016 0 0.024 0.016 0.032 0.024 0.072 0.032 0.112 0 0.016 0.008 0.032 0.008 0.048 0.008 0.024 0.008 0.048 0.016 0.080h8.712v-14.632c0-0.272 0.232-0.488 0.504-0.488h7.296c0.016 0 0.048 0 0.072-0.048 0.024-0.040 0.008-0.072 0-0.080l-1.576-2.312c-0.16-0.224-0.408-0.352-0.688-0.352h-13.168c-0.080 0-0.144 0.024-0.2 0.072l-0.832 0.816c-0.24 0.24-0.568 0.368-0.912 0.368h-8.68c-0.456 0-0.816 0.36-0.816 0.8v12.624z"></path>
<path d="M14.080 9.832h3.184c0.648 0 1.176 0.512 1.176 1.144v10.528c0 0.272-0.232 0.496-0.504 0.496h-4.52c-0.28 0-0.504-0.224-0.504-0.496v-10.528c0-0.632 0.52-1.144 1.168-1.144zM13.92 21.016h3.504v-5.792h-3.504v5.792zM13.92 14.24h3.504v-3.264c0-0.088-0.072-0.16-0.16-0.16h-3.184c-0.088 0-0.16 0.072-0.16 0.16v3.264z"></path>
</svg>