<svg aria-hidden="true" version="1.1" xmlns="http://www.w3.org/2000/svg" xmlns:xlink="http://www.w3.org/1999/xlink">
<defs>
<symbol id="icon-freezer" viewBox="0 0 32 32">
<path stroke-linejoin="round" stroke-linecap="butt" stroke-miterlimit="4" stroke-width="2.0800" d="M23.392 2.992c1.104 0 2 0.896 2 2v20.384c0 1.104-0.896 2-2 2h-14.8c-1.104 0-2-0.896-2-2v-20.384c0-1.104 0.896-2 2-2h14.8z"></path>
<path stroke-linejoin="round" stroke-linecap="butt" stroke-miterlimit="4" stroke-width="2.0800" d="M6.592 13.12h18.8M10.304 10.56v-4.048M10.304 19.44v-4.048M8.416 27.376v0.704c0 0.24 0.096 0.464 0.272 0.64 0.16 0.176 0.4 0.272 0.64 0.272h1.648c0.24 0 0.464-0.096 0.64-0.272 0.176-0.16 0.272-0.4 0.272-0.64v-0.704M20.096 27.376v0.704c0 0.24 0.096 0.48 0.256 0.64 0.176 0.176 0.416 0.272 0.656 0.272h1.648c0.24 0 0.48-0.096 0.656-0.272 0.16-0.16 0.256-0.4 0.256-0.64v-0.704"></path>
</symbol>
<symbol id="icon-fully-van" viewBox="0 0 32 32">
<path d="M1.824 6.056h8.68c0.080 0 0.144-0.032 0.2-0.080l0.832-0.816c0.24-0.232 0.568-0.36 0.912-0.36h13.168c0.616 0 1.184 0.296 1.52 0.792l1.584 2.312c0.224 0.328 0.24 0.744 0.056 1.096-0.192 0.344-0.56 0.56-0.968 0.56h-6.784v0.672h3.472c0.92 0 1.752 0.528 2.112 1.36l2.040 4.656 1.784 0.696c0.952 0.368 1.568 1.256 1.568 2.256v4.312c0 0.64-0.544 1.168-1.2 1.168h-2.072c-0.24 1.424-1.52 2.52-3.048 2.52s-2.8-1.096-3.048-2.52h-11.336c-0.248 1.424-1.52 2.52-3.048 2.52s-2.8-1.096-3.048-2.52h-4.144c-0.584 0-1.056-0.472-1.056-1.040v-15.8c0-0.984 0.816-1.784 1.824-1.784zM25.68 26.208c1.144 0 2.080-0.904 2.080-2.024s-0.936-2.024-2.080-2.024c-1.144 0-2.080 0.904-2.080 2.024s0.936 2.024 2.080 2.024zM21.024 23.696h1.608c0.008-0.032 0.016-0.056 0.016-0.080 0.008-0.016 0.008-0.032 0.008-0.048 0.008-0.040 0.024-0.072 0.032-0.112 0-0.008 0-0.016 0-0.024 0.016-0.048 0.032-0.096 0.040-0.136 0.008-0.016 0.016-0.024 0.016-0.040 0.008-0.032 0.024-0.064 0.032-0.096 0.008-0.016 0.016-0.032 0.024-0.048 0.008-0.024 0.016-0.056 0.032-0.080 0.008-0.016 0.016-0.040 0.024-0.056 0.008-0.024 0.016-0.048 0.032-0.072 0.008-0.016 0.016-0.040 0.024-0.056 0.016-0.024 0.024-0.048 0.040-0.072 0.008-0.016 0.016-0.032 0.032-0.048 0.008-0.024 0.024-0.048 0.040-0.072 0.008-0.016 0.016-0.032 0.032-0.048 0.016-0.024 0.024-0.048 0.040-0.072 0.016-0.016 0.024-0.032 0.032-0.048 0.016-0.024 0.040-0.048 0.056-0.072 0.008-0.016 0.016-0.024 0.032-0.040 0.024-0.032 0.048-0.064 0.072-0.096 0.008 0 0.008-0.008 0.016-0.008 0.024-0.040 0.056-0.072 0.088-0.104 0.008-0.016 0.024-0.024 0.032-0.032 0.024-0.024 0.040-0.048 0.064-0.072 0.016-0.008 0.032-0.024 0.040-0.040 0.024-0.016 0.040-0.032 0.064-0.056 0.016-0.008 0.032-0.024 0.040-0.040 0.024-0.016 0.048-0.032 0.064-0.048l0.048-0.040c0.024-0.016 0.040-0.032 0.064-0.048 0.016-0.016 0.032-0.024 0.048-0.032 0.024-0.016 0.048-0.032 0.072-0.048 0.016-0.016 0.032-0.024 0.048-0.032 0.024-0.016 0.048-0.032 0.072-0.048 0.016-0.008 0.032-0.024 0.048-0.032 0.024-0.016 0.056-0.032 0.080-0.040 0.016-0.008 0.024-0.016 0.040-0.024 0.040-0.024 0.080-0.040 0.12-0.064 0 0 0.008 0 0.008 0 0.040-0.024 0.088-0.040 0.128-0.056 0.016-0.008 0.032-0.016 0.048-0.024 0.024-0.008 0.056-0.016 0.088-0.032 0.016-0.008 0.032-0.008 0.056-0.016s0.048-0.024 0.080-0.032c0.016 0 0.040-0.008 0.056-0.016 0.032-0.008 0.056-0.016 0.080-0.024 0.024 0 0.040-0.008 0.064-0.008 0.024-0.008 0.056-0.016 0.080-0.024 0.024 0 0.040-0.008 0.064-0.008 0.024-0.008 0.056-0.016 0.088-0.016 0.016-0.008 0.040-0.008 0.056-0.008 0.032-0.008 0.064-0.008 0.088-0.016 0.024 0 0.040 0 0.064-0.008 0.032 0 0.064 0 0.096-0.008 0.016 0 0.032 0 0.048 0 0.048 0 0.104 0 0.152 0s0.104 0 0.152 0c0.016 0 0.032 0 0.048 0 0.032 0.008 0.072 0.008 0.104 0.008 0.016 0.008 0.040 0.008 0.056 0.008 0.032 0.008 0.056 0.008 0.088 0.016 0.024 0 0.040 0 0.064 0.008 0.024 0 0.056 0.008 0.080 0.016 0.024 0 0.040 0.008 0.064 0.008 0.024 0.008 0.056 0.016 0.080 0.024 0.024 0 0.040 0.008 0.064 0.008 0.024 0.008 0.056 0.016 0.080 0.024 0.016 0.008 0.040 0.016 0.056 0.016 0.032 0.008 0.056 0.024 0.088 0.032 0.016 0.008 0.032 0.008 0.048 0.016 0.032 0.016 0.064 0.024 0.096 0.032 0.008 0.008 0.024 0.016 0.040 0.024 0.040 0.016 0.088 0.032 0.128 0.056 0.008 0 0.008 0 0.008 0 0.040 0.024 0.080 0.040 0.12 0.064 0.016 0.008 0.024 0.016 0.040 0.024 0.032 0.008 0.056 0.024 0.080 0.040 0.016 0.008 0.032 0.024 0.048 0.032 0.024 0.016 0.048 0.032 0.072 0.048 0.016 0.008 0.040 0.016 0.056 0.032s0.040 0.032 0.064 0.048c0.016 0.008 0.032 0.016 0.048 0.032 0.024 0.016 0.040 0.032 0.064 0.048l0.048 0.040c0.024 0.016 0.040 0.032 0.064 0.048 0.016 0.016 0.024 0.032 0.040 0.040 0.024 0.024 0.040 0.040 0.064 0.056 0.016 0.016 0.024 0.032 0.040 0.040 0.024 0.024 0.048 0.048 0.064 0.072 0.016 0.008 0.024 0.016 0.032 0.032 0.032 0.032 0.064 0.064 0.096 0.104 0 0 0.008 0.008 0.008 0.008 0.024 0.032 0.048 0.064 0.080 0.096 0.008 0.016 0.016 0.024 0.024 0.040 0.016 0.024 0.040 0.048 0.056 0.072 0.008 0.016 0.016 0.032 0.032 0.048 0.016 0.024 0.032 0.048 0.048 0.072 0.008 0.016 0.016 0.032 0.024 0.048 0.016 0.024 0.032 0.048 0.048 0.072 0.008 0.016 0.016 0.032 0.024 0.048 0.016 0.024 0.024 0.048 0.040 0.072 0.008 0.016 0.016 0.040 0.024 0.056 0.016 0.024 0.024 0.048 0.040 0.072 0.008 0.016 0.016 0.040 0.016 0.056 0.016 0.024 0.024 0.056 0.040 0.080 0 0.016 0.008 0.032 0.016 0.048 0.008 0.032 0.024 0.064 0.032 0.096 0.008 0.016 0.008 0.024 0.016 0.040 0.016 0.040 0.024 0.088 0.040 0.136 0 0.008 0 0.016 0 0.024 0.016 0.040 0.024 0.072 0.032 0.112 0 0.016 0.008 0.032 0.008 0.048 0.008 0.024 0.008 0.048 0.016 0.080h2.072c0.104 0 0.184-0.088 0.184-0.184v-2.064h-0.784v-0.984h0.784v-1.264c0-0.6-0.36-1.128-0.928-1.344l-1.888-0.736h-7.144v6.576zM21.024 16.136h6.472l-1.816-4.16c-0.2-0.464-0.664-0.76-1.184-0.76h-3.472v4.92zM8.248 26.208c1.144 0 2.080-0.904 2.080-2.024s-0.936-2.024-2.080-2.024c-0.032 0-0.072 0-0.104 0-0.96 0.048-1.744 0.728-1.928 1.616-0.008 0.032-0.016 0.064-0.024 0.104-0.008 0.064-0.016 0.128-0.016 0.2-0.008 0.032-0.008 0.072-0.008 0.104 0 1.12 0.936 2.024 2.080 2.024zM1.008 20.464h0.784v0.984h-0.784v2.192c0 0.032 0.024 0.056 0.048 0.056h4.144c0.008-0.032 0.008-0.056 0.016-0.080 0-0.016 0.008-0.032 0.008-0.048 0.008-0.040 0.016-0.072 0.032-0.112 0-0.008 0-0.016 0-0.024 0.016-0.048 0.032-0.088 0.040-0.136 0.008-0.016 0.016-0.032 0.016-0.040 0.008-0.032 0.024-0.064 0.032-0.096 0.008-0.016 0.016-0.032 0.024-0.048 0.008-0.024 0.016-0.056 0.032-0.080 0.008-0.016 0.016-0.040 0.024-0.056 0.008-0.024 0.016-0.048 0.032-0.072 0.008-0.016 0.016-0.040 0.024-0.056 0.016-0.024 0.024-0.048 0.040-0.072 0.008-0.016 0.016-0.032 0.032-0.048 0.008-0.024 0.024-0.048 0.040-0.072 0.008-0.016 0.016-0.032 0.032-0.048 0.008-0.024 0.024-0.048 0.040-0.072 0.016-0.016 0.024-0.032 0.032-0.048 0.016-0.024 0.040-0.048 0.056-0.072 0.008-0.016 0.016-0.024 0.032-0.040 0.024-0.032 0.048-0.064 0.072-0.088 0-0.008 0.008-0.016 0.008-0.016 0.032-0.040 0.064-0.072 0.096-0.104 0.008-0.016 0.024-0.024 0.032-0.032 0.024-0.024 0.040-0.048 0.064-0.072 0.016-0.008 0.024-0.024 0.040-0.040 0.024-0.016 0.040-0.032 0.064-0.056 0.016-0.008 0.032-0.024 0.040-0.040 0.024-0.016 0.048-0.032 0.064-0.048s0.032-0.024 0.048-0.040c0.024-0.016 0.040-0.032 0.064-0.048 0.016-0.016 0.032-0.024 0.048-0.032 0.024-0.016 0.048-0.032 0.072-0.048 0.016-0.016 0.032-0.024 0.048-0.032 0.024-0.016 0.048-0.032 0.072-0.048 0.016-0.008 0.032-0.024 0.048-0.032 0.024-0.016 0.048-0.032 0.080-0.040 0.016-0.008 0.024-0.016 0.040-0.024 0.040-0.024 0.080-0.040 0.12-0.064 0 0 0.008 0 0.008 0 0.040-0.024 0.088-0.040 0.128-0.056 0.016-0.008 0.032-0.016 0.048-0.024 0.024-0.008 0.056-0.016 0.088-0.032 0.016-0.008 0.032-0.008 0.056-0.016s0.048-0.024 0.080-0.032c0.016 0 0.040-0.008 0.056-0.016 0.032-0.008 0.056-0.016 0.080-0.024 0.024 0 0.040-0.008 0.064-0.008 0.024-0.008 0.056-0.016 0.080-0.024 0.024 0 0.040-0.008 0.064-0.008 0.024-0.008 0.056-0.016 0.080-0.016 0.024-0.008 0.040-0.008 0.064-0.008 0.032-0.008 0.056-0.008 0.088-0.016 0.024 0 0.040 0 0.056-0.008 0.040 0 0.072 0 0.104-0.008 0.016 0 0.032 0 0.048 0 0.048 0 0.104 0 0.152 0s0.104 0 0.152 0c0.016 0 0.032 0 0.048 0 0.032 0.008 0.064 0.008 0.104 0.008 0.016 0.008 0.032 0.008 0.056 0.008 0.032 0.008 0.056 0.008 0.088 0.016 0.024 0 0.040 0 0.064 0.008 0.024 0 0.056 0.008 0.080 0.016 0.024 0 0.040 0.008 0.064 0.008 0.024 0.008 0.056 0.016 0.080 0.024 0.024 0 0.040 0.008 0.064 0.008 0.024 0.008 0.056 0.016 0.080 0.024 0.016 0.008 0.040 0.016 0.056 0.016 0.032 0.008 0.056 0.024 0.088 0.032 0.016 0.008 0.032 0.008 0.048 0.016 0.032 0.016 0.064 0.024 0.096 0.032 0.008 0.008 0.024 0.016 0.040 0.024 0.040 0.016 0.088 0.032 0.128 0.056 0.008 0 0.008 0 0.008 0 0.040 0.024 0.080 0.040 0.12 0.064 0.016 0.008 0.024 0.016 0.040 0.024 0.032 0.008 0.056 0.024 0.080 0.040 0.016 0.008 0.032 0.024 0.048 0.032 0.024 0.016 0.048 0.032 0.072 0.048 0.016 0.008 0.032 0.016 0.056 0.032 0.016 0.016 0.040 0.032 0.064 0.048 0.016 0.008 0.032 0.016 0.048 0.032 0.024 0.016 0.040 0.032 0.064 0.048 0.016 0.016 0.032 0.024 0.048 0.040s0.040 0.032 0.064 0.048c0.008 0.016 0.024 0.032 0.040 0.040 0.024 0.024 0.040 0.040 0.064 0.056 0.016 0.016 0.024 0.032 0.040 0.040 0.024 0.024 0.048 0.048 0.064 0.072 0.016 0.008 0.024 0.016 0.032 0.032 0.032 0.032 0.064 0.064 0.096 0.104 0 0 0.008 0.008 0.008 0.008 0.024 0.032 0.048 0.064 0.072 0.096 0.016 0.016 0.024 0.024 0.032 0.040 0.016 0.024 0.040 0.048 0.056 0.072 0.008 0.016 0.016 0.032 0.032 0.048 0.016 0.024 0.032 0.048 0.040 0.072 0.016 0.016 0.024 0.032 0.032 0.048 0.016 0.024 0.032 0.048 0.040 0.072 0.016 0.016 0.024 0.032 0.032 0.048 0.016 0.024 0.024 0.048 0.040 0.072 0.008 0.016 0.016 0.040 0.024 0.056 0.016 0.024 0.024 0.048 0.032 0.072 0.008 0.016 0.016 0.040 0.024 0.056 0.016 0.024 0.024 0.056 0.040 0.080 0 0.016 0.008 0.032 0.016 0.048 0.008 0.032 0.024 0.064 0.032 0.096 0.008 0.016 0.008 0.024 0.016 0.040 0.008 0.040 0.024 0.088 0.040 0.136 0 0.008 0 0.016 0 0.024 0.016 0.032 0.024 0.072 0.032 0.112 0 0.016 0.008 0.032 0.008 0.048 0.008 0.024 0.008 0.048 0.016 0.080h8.712v-14.632c0-0.272 0.232-0.488 0.504-0.488h7.296c0.016 0 0.048 0 0.072-0.048 0.024-0.040 0.008-0.072 0-0.080l-1.576-2.312c-0.16-0.224-0.408-0.352-0.688-0.352h-13.168c-0.080 0-0.144 0.024-0.2 0.072l-0.832 0.816c-0.24 0.24-0.568 0.368-0.912 0.368h-8.68c-0.456 0-0.816 0.36-0.816 0.8v12.624z"></path>
<path d="M14.080 9.832h3.184c0.648 0 1.176 0.512 1.176 1.144v10.528c0 0.272-0.232 0.496-0.504 0.496h-4.52c-0.28 0-0.504-0.224-0.504-0.496v-10.528c0-0.632 0.52-1.144 1.168-1.144zM13.92 21.016h3.504v-5.792h-3.504v5.792zM13.92 14.24h3.504v-3.264c0-0.088-0.072-0.16-0.16-0.16h-3.184c-0.088 0-0.16 0.072-0.16 0.16v3.264z"></path>
</symbol>
<symbol id="icon-van" viewBox="0 0 32 32">
<path d="M1.824 6.056h8.68c0.080 0 0.144-0.032 0.2-0.080l0.832-0.816c0.24-0.232 0.568-0.36 0.912-0.36h13.168c0.616 0 1.184 0.296 1.52 0.792l1.584 2.312c0.224 0.328 0.24 0.744 0.056 1.096-0.192 0.344-0.56 0.56-0.968 0.56h-6.784v0.672h3.472c0.92 0 1.752 0.528 2.112 1.36l2.040 4.656 1.784 0.696c0.952 0.368 1.568 1.256 1.568 2.256v4.312c0 0.64-0.544 1.168-1.2 1.168h-2.072c-0.24 1.424-1.52 2.52-3.048 2.52s-2.8-1.096-3.048-2.52h-11.336c-0.248 1.424-1.52 2.52-3.048 2.52s-2.8-1.096-3.048-2.52h-4.144c-0.584 0-1.056-0.472-1.056-1.040v-15.8c0-0.984 0.816-1.784 1.824-1.784zM25.68 26.208c1.144 0 2.080-0.904 2.080-2.024s-0.936-2.024-2.080-2.024c-1.144 0-2.080 0.904-2.080 2.024s0.936 2.024 2.080 2.024zM21.024 23.696h1.608c0.008-0.032 0.016-0.056 0.016-0.080 0.008-0.016 0.008-0.032 0.008-0.048 0.008-0.040 0.024-0.072 0.032-0.112 0-0.008 0-0.016 0-0.024 0.016-0.048 0.032-0.096 0.040-0.136 0.008-0.016 0.016-0.024 0.016-0.040 0.008-0.032 0.024-0.064 0.032-0.096 0.008-0.016 0.016-0.032 0.024-0.048 0.008-0.024 0.016-0.056 0.032-0.080 0.008-0.016 0.016-0.040 0.024-0.056 0.008-0.024 0.016-0.048 0.032-0.072 0.008-0.016 0.016-0.040 0.024-0.056 0.016-0.024 0.024-0.048 0.040-0.072 0.008-0.016 0.016-0.032 0.032-0.048 0.008-0.024 0.024-0.048 0.040-0.072 0.008-0.016 0.016-0.032 0.032-0.048 0.016-0.024 0.024-0.048 0.040-0.072 0.016-0.016 0.024-0.032 0.032-0.048 0.016-0.024 0.040-0.048 0.056-0.072 0.008-0.016 0.016-0.024 0.032-0.040 0.024-0.032 0.048-0.064 0.072-0.096 0.008 0 0.008-0.008 0.016-0.008 0.024-0.040 0.056-0.072 0.088-0.104 0.008-0.016 0.024-0.024 0.032-0.032 0.024-0.024 0.040-0.048 0.064-0.072 0.016-0.008 0.032-0.024 0.040-0.040 0.024-0.016 0.040-0.032 0.064-0.056 0.016-0.008 0.032-0.024 0.040-0.040 0.024-0.016 0.048-0.032 0.064-0.048l0.048-0.040c0.024-0.016 0.040-0.032 0.064-0.048 0.016-0.016 0.032-0.024 0.048-0.032 0.024-0.016 0.048-0.032 0.072-0.048 0.016-0.016 0.032-0.024 0.048-0.032 0.024-0.016 0.048-0.032 0.072-0.048 0.016-0.008 0.032-0.024 0.048-0.032 0.024-0.016 0.056-0.032 0.080-0.040 0.016-0.008 0.024-0.016 0.040-0.024 0.040-0.024 0.080-0.040 0.12-0.064 0 0 0.008 0 0.008 0 0.040-0.024 0.088-0.040 0.128-0.056 0.016-0.008 0.032-0.016 0.048-0.024 0.024-0.008 0.056-0.016 0.088-0.032 0.016-0.008 0.032-0.008 0.056-0.016s0.048-0.024 0.080-0.032c0.016 0 0.040-0.008 0.056-0.016 0.032-0.008 0.056-0.016 0.080-0.024 0.024 0 0.040-0.008 0.064-0.008 0.024-0.008 0.056-0.016 0.080-0.024 0.024 0 0.040-0.008 0.064-0.008 0.024-0.008 0.056-0.016 0.088-0.016 0.016-0.008 0.040-0.008 0.056-0.008 0.032-0.008 0.064-0.008 0.088-0.016 0.024 0 0.040 0 0.064-0.008 0.032 0 0.064 0 0.096-0.008 0.016 0 0.032 0 0.048 0 0.048 0 0.104 0 0.152 0s0.104 0 0.152 0c0.016 0 0.032 0 0.048 0 0.032 0.008 0.072 0.008 0.104 0.008 0.016 0.008 0.040 0.008 0.056 0.008 0.032 0.008 0.056 0.008 0.088 0.016 0.024 0 0.040 0 0.064 0.008 0.024 0 0.056 0.008 0.080 0.016 0.024 0 0.040 0.008 0.064 0.008 0.024 0.008 0.056 0.016 0.080 0.024 0.024 0 0.040 0.008 0.064 0.008 0.024 0.008 0.056 0.016 0.080 0.024 0.016 0.008 0.040 0.016 0.056 0.016 0.032 0.008 0.056 0.024 0.088 0.032 0.016 0.008 0.032 0.008 0.048 0.016 0.032 0.016 0.064 0.024 0.096 0.032 0.008 0.008 0.024 0.016 0.040 0.024 0.040 0.016 0.088 0.032 0.128 0.056 0.008 0 0.008 0 0.008 0 0.040 0.024 0.080 0.040 0.12 0.064 0.016 0.008 0.024 0.016 0.040 0.024 0.032 0.008 0.056 0.024 0.080 0.040 0.016 0.008 0.032 0.024 0.048 0.032 0.024 0.016 0.048 0.032 0.072 0.048 0.016 0.008 0.040 0.016 0.056 0.032s0.040 0.032 0.064 0.048c0.016 0.008 0.032 0.016 0.048 0.032 0.024 0.016 0.040 0.032 0.064 0.048l0.048 0.040c0.024 0.016 0.040 0.032 0.064 0.048 0.016 0.016 0.024 0.032 0.040 0.040 0.024 0.024 0.040 0.040 0.064 0.056 0.016 0.016 0.024 0.032 0.040 0.040 0.024 0.024 0.048 0.048 0.064 0.072 0.016 0.008 0.024 0.016 0.032 0.032 0.032 0.032 0.064 0.064 0.096 0.104 0 0 0.008 0.008 0.008 0.008 0.024 0.032 0.048 0.064 0.080 0.096 0.008 0.016 0.016 0.024 0.024 0.040 0.016 0.024 0.040 0.048 0.056 0.072 0.008 0.016 0.016 0.032 0.032 0.048 0.016 0.024 0.032 0.048 0.048 0.072 0.008 0.016 0.016 0.032 0.024 0.048 0.016 0.024 0.032 0.048 0.048 0.072 0.008 0.016 0.016 0.032 0.024 0.048 0.016 0.024 0.024 0.048 0.040 0.072 0.008 0.016 0.016 0.040 0.024 0.056 0.016 0.024 0.024 0.048 0.040 0.072 0.008 0.016 0.016 0.040 0.016 0.056 0.016 0.024 0.024 0.056 0.040 0.080 0 0.016 0.008 0.032 0.016 0.048 0.008 0.032 0.024 0.064 0.032 0.096 0.008 0.016 0.008 0.024 0.016 0.040 0.016 0.040 0.024 0.088 0.040 0.136 0 0.008 0 0.016 0 0.024 0.016 0.040 0.024 0.072 0.032 0.112 0 0.016 0.008 0.032 0.008 0.048 0.008 0.024 0.008 0.048 0.016 0.080h2.072c0.104 0 0.184-0.088 0.184-0.184v-2.064h-0.784v-0.984h0.784v-1.264c0-0.6-0.36-1.128-0.928-1.344l-1.888-0.736h-7.144v6.576zM21.024 16.136h6.472l-1.816-4.16c-0.2-0.464-0.664-0.76-1.184-0.76h-3.472v4.92zM8.248 26.208c1.144 0 2.080-0.904 2.080-2.024s-0.936-2.024-2.080-2.024c-0.032 0-0.072 0-0.104 0-0.96 0.048-1.744 0.728-1.928 1.616-0.008 0.032-0.016 0.064-0.024 0.104-0.008 0.064-0.016 0.128-0.016 0.2-0.008 0.032-0.008 0.072-0.008 0.104 0 1.12 0.936 2.024 2.080 2.024zM1.008 20.464h0.784v0.984h-0.784v2.192c0 0.032 0.024 0.056 0.048 0.056h4.144c0.008-0.032 0.008-0.056 0.016-0.080 0-0.016 0.008-0.032 0.008-0.048 0.008-0.040 0.016-0.072 0.032-0.112 0-0.008 0-0.016 0-0.024 0.016-0.048 0.032-0.088 0.040-0.136 0.008-0.016 0.016-0.032 0.016-0.040 0.008-0.032 0.024-0.064 0.032-0.096 0.008-0.016 0.016-0.032 0.024-0.048 0.008-0.024 0.016-0.056 0.032-0.080 0.008-0.016 0.016-0.040 0.024-0.056 0.008-0.024 0.016-0.048 0.032-0.072 0.008-0.016 0.016-0.040 0.024-0.056 0.016-0.024 0.024-0.048 0.040-0.072 0.008-0.016 0.016-0.032 0.032-0.048 0.008-0.024 0.024-0.048 0.040-0.072 0.008-0.016 0.016-0.032 0.032-0.048 0.008-0.024 0.024-0.048 0.040-0.072 0.016-0.016 0.024-0.032 0.032-0.048 0.016-0.024 0.040-0.048 0.056-0.072 0.008-0.016 0.016-0.024 0.032-0.040 0.024-0.032 0.048-0.064 0.072-0.088 0-0.008 0.008-0.016 0.008-0.016 0.032-0.040 0.064-0.072 0.096-0.104 0.008-0.016 0.024-0.024 0.032-0.032 0.024-0.024 0.040-0.048 0.064-0.072 0.016-0.008 0.024-0.024 0.040-0.040 0.024-0.016 0.040-0.032 0.064-0.056 0.016-0.008 0.032-0.024 0.040-0.040 0.024-0.016 0.048-0.032 0.064-0.048s0.032-0.024 0.048-0.040c0.024-0.016 0.040-0.032 0.064-0.048 0.016-0.016 0.032-0.024 0.048-0.032 0.024-0.016 0.048-0.032 0.072-0.048 0.016-0.016 0.032-0.024 0.048-0.032 0.024-0.016 0.048-0.032 0.072-0.048 0.016-0.008 0.032-0.024 0.048-0.032 0.024-0.016 0.048-0.032 0.080-0.040 0.016-0.008 0.024-0.016 0.040-0.024 0.040-0.024 0.080-0.040 0.12-0.064 0 0 0.008 0 0.008 0 0.040-0.024 0.088-0.040 0.128-0.056 0.016-0.008 0.032-0.016 0.048-0.024 0.024-0.008 0.056-0.016 0.088-0.032 0.016-0.008 0.032-0.008 0.056-0.016s0.048-0.024 0.080-0.032c0.016 0 0.040-0.008 0.056-0.016 0.032-0.008 0.056-0.016 0.080-0.024 0.024 0 0.040-0.008 0.064-0.008 0.024-0.008 0.056-0.016 0.080-0.024 0.024 0 0.040-0.008 0.064-0.008 0.024-0.008 0.056-0.016 0.080-0.016 0.024-0.008 0.040-0.008 0.064-0.008 0.032-0.008 0.056-0.008 0.088-0.016 0.024 0 0.040 0 0.056-0.008 0.040 0 0.072 0 0.104-0.008 0.016 0 0.032 0 0.048 0 0.048 0 0.104 0 0.152 0s0.104 0 0.152 0c0.016 0 0.032 0 0.048 0 0.032 0.008 0.064 0.008 0.104 0.008 0.016 0.008 0.032 0.008 0.056 0.008 0.032 0.008 0.056 0.008 0.088 0.016 0.024 0 0.040 0 0.064 0.008 0.024 0 0.056 0.008 0.080 0.016 0.024 0 0.040 0.008 0.064 0.008 0.024 0.008 0.056 0.016 0.080 0.024 0.024 0 0.040 0.008 0.064 0.008 0.024 0.008 0.056 0.016 0.080 0.024 0.016 0.008 0.040 0.016 0.056 0.016 0.032 0.008 0.056 0.024 0.088 0.032 0.016 0.008 0.032 0.008 0.048 0.016 0.032 0.016 0.064 0.024 0.096 0.032 0.008 0.008 0.024 0.016 0.040 0.024 0.040 0.016 0.088 0.032 0.128 0.056 0.008 0 0.008 0 0.008 0 0.040 0.024 0.080 0.040 0.12 0.064 0.016 0.008 0.024 0.016 0.040 0.024 0.032 0.008 0.056 0.024 0.080 0.040 0.016 0.008 0.032 0.024 0.048 0.032 0.024 0.016 0.048 0.032 0.072 0.048 0.016 0.008 0.032 0.016 0.056 0.032 0.016 0.016 0.040 0.032 0.064 0.048 0.016 0.008 0.032 0.016 0.048 0.032 0.024 0.016 0.040 0.032 0.064 0.048 0.016 0.016 0.032 0.024 0.048 0.040s0.040 0.032 0.064 0.048c0.008 0.016 0.024 0.032 0.040 0.040 0.024 0.024 0.040 0.040 0.064 0.056 0.016 0.016 0.024 0.032 0.040 0.040 0.024 0.024 0.048 0.048 0.064 0.072 0.016 0.008 0.024 0.016 0.032 0.032 0.032 0.032 0.064 0.064 0.096 0.104 0 0 0.008 0.008 0.008 0.008 0.024 0.032 0.048 0.064 0.072 0.096 0.016 0.016 0.024 0.024 0.032 0.040 0.016 0.024 0.040 0.048 0.056 0.072 0.008 0.016 0.016 0.032 0.032 0.048 0.016 0.024 0.032 0.048 0.040 0.072 0.016 0.016 0.024 0.032 0.032 0.048 0.016 0.024 0.032 0.048 0.040 0.072 0.016 0.016 0.024 0.032 0.032 0.048 0.016 0.024 0.024 0.048 0.040 0.072 0.008 0.016 0.016 0.040 0.024 0.056 0.016 0.024 0.024 0.048 0.032 0.072 0.008 0.016 0.016 0.040 0.024 0.056 0.016 0.024 0.024 0.056 0.040 0.080 0 0.016 0.008 0.032 0.016 0.048 0.008 0.032 0.024 0.064 0.032 0.096 0.008 0.016 0.008 0.024 0.016 0.040 0.008 0.040 0.024 0.088 0.040 0.136 0 0.008 0 0.016 0 0.024 0.016 0.032 0.024 0.072 0.032 0.112 0 0.016 0.008 0.032 0.008 0.048 0.008 0.024 0.008 0.048 0.016 0.080h8.712v-14.632c0-0.272 0.232-0.488 0.504-0.488h7.296c0.016 0 0.048 0 0.072-0.048 0.024-0.040 0.008-0.072 0-0.080l-1.576-2.312c-0.16-0.224-0.408-0.352-0.688-0.352h-13.168c-0.080 0-0.144 0.024-0.2 0.072l-0.832 0.816c-0.24 0.24-0.568 0.368-0.912 0.368h-8.68c-0.456 0-0.816 0.36-0.816 0.8v12.624z"></path>
<path d="M3.872 9.832h6.168c0.712 0 1.296 0.568 1.296 1.264v2.872c0 0.696-0.584 1.264-1.296 1.264h-6.168c-0.712 0-1.296-0.568-1.296-1.264v-2.872c0-0.696 0.584-1.264 1.296-1.264zM3.584 13.968c0 0.152 0.128 0.272 0.288 0.272h6.168c0.16 0 0.288-0.12 0.288-0.272v-2.872c0-0.152-0.128-0.28-0.288-0.28h-6.168c-0.16 0-0.288 0.128-0.288 0.28v2.872z"></path>
</symbol>
<symbol id="icon-calendar" viewBox="0 0 32 32">
<path stroke-linejoin="round" stroke-linecap="butt" stroke-miterlimit="4" stroke-width="2.4" d="M25.328 5.328c1.472 0 2.672 1.184 2.672 2.672v18.656c0 1.472-1.2 2.672-2.672 2.672h-18.672c-1.472 0-2.656-1.2-2.656-2.672v-18.656c0-1.488 1.184-2.672 2.656-2.672h18.672z"></path>
<path stroke-linejoin="round" stroke-linecap="round" stroke-miterlimit="4" stroke-width="2.4" d="M21.328 2.656v5.328"></path>
<path stroke-linejoin="round" stroke-linecap="round" stroke-miterlimit="4" stroke-width="2.4" d="M10.656 2.656v5.328"></path>
<path stroke-linejoin="round" stroke-linecap="round" stroke-miterlimit="4" stroke-width="2.4" d="M4 13.328h24"></path>
</symbol>
<symbol id="icon-alcove" viewBox="0 0 32 32">
<path d="M1.824 6.056h8.68c0.080 0 0.144-0.032 0.2-0.080l0.832-0.816c0.24-0.232 0.568-0.36 0.912-0.36h13.168c0.616 0 1.184 0.296 1.52 0.792l1.584 2.312c0.224 0.328 0.24 0.744 0.056 1.096-0.192 0.344-0.56 0.56-0.968 0.56h-6.784v0.672h3.472c0.92 0 1.752 0.528 2.112 1.36l2.040 4.656 1.784 0.696c0.952 0.368 1.568 1.256 1.568 2.256v4.312c0 0.64-0.544 1.168-1.2 1.168h-2.072c-0.24 1.424-1.52 2.52-3.048 2.52s-2.8-1.096-3.048-2.52h-11.336c-0.248 1.424-1.52 2.52-3.048 2.52s-2.8-1.096-3.048-2.52h-4.144c-0.584 0-1.056-0.472-1.056-1.040v-15.8c0-0.984 0.816-1.784 1.824-1.784zM25.68 26.208c1.144 0 2.080-0.904 2.080-2.024s-0.936-2.024-2.080-2.024c-1.144 0-2.080 0.904-2.080 2.024s0.936 2.024 2.080 2.024zM21.024 23.696h1.608c0.008-0.032 0.016-0.056 0.016-0.080 0.008-0.016 0.008-0.032 0.008-0.048 0.008-0.040 0.024-0.072 0.032-0.112 0-0.008 0-0.016 0-0.024 0.016-0.048 0.032-0.096 0.040-0.136 0.008-0.016 0.016-0.024 0.016-0.040 0.008-0.032 0.024-0.064 0.032-0.096 0.008-0.016 0.016-0.032 0.024-0.048 0.008-0.024 0.016-0.056 0.032-0.080 0.008-0.016 0.016-0.040 0.024-0.056 0.008-0.024 0.016-0.048 0.032-0.072 0.008-0.016 0.016-0.040 0.024-0.056 0.016-0.024 0.024-0.048 0.040-0.072 0.008-0.016 0.016-0.032 0.032-0.048 0.008-0.024 0.024-0.048 0.040-0.072 0.008-0.016 0.016-0.032 0.032-0.048 0.016-0.024 0.024-0.048 0.040-0.072 0.016-0.016 0.024-0.032 0.032-0.048 0.016-0.024 0.040-0.048 0.056-0.072 0.008-0.016 0.016-0.024 0.032-0.040 0.024-0.032 0.048-0.064 0.072-0.096 0.008 0 0.008-0.008 0.016-0.008 0.024-0.040 0.056-0.072 0.088-0.104 0.008-0.016 0.024-0.024 0.032-0.032 0.024-0.024 0.040-0.048 0.064-0.072 0.016-0.008 0.032-0.024 0.040-0.040 0.024-0.016 0.040-0.032 0.064-0.056 0.016-0.008 0.032-0.024 0.040-0.040 0.024-0.016 0.048-0.032 0.064-0.048l0.048-0.040c0.024-0.016 0.040-0.032 0.064-0.048 0.016-0.016 0.032-0.024 0.048-0.032 0.024-0.016 0.048-0.032 0.072-0.048 0.016-0.016 0.032-0.024 0.048-0.032 0.024-0.016 0.048-0.032 0.072-0.048 0.016-0.008 0.032-0.024 0.048-0.032 0.024-0.016 0.056-0.032 0.080-0.040 0.016-0.008 0.024-0.016 0.040-0.024 0.040-0.024 0.080-0.040 0.12-0.064 0 0 0.008 0 0.008 0 0.040-0.024 0.088-0.040 0.128-0.056 0.016-0.008 0.032-0.016 0.048-0.024 0.024-0.008 0.056-0.016 0.088-0.032 0.016-0.008 0.032-0.008 0.056-0.016s0.048-0.024 0.080-0.032c0.016 0 0.040-0.008 0.056-0.016 0.032-0.008 0.056-0.016 0.080-0.024 0.024 0 0.040-0.008 0.064-0.008 0.024-0.008 0.056-0.016 0.080-0.024 0.024 0 0.040-0.008 0.064-0.008 0.024-0.008 0.056-0.016 0.088-0.016 0.016-0.008 0.040-0.008 0.056-0.008 0.032-0.008 0.064-0.008 0.088-0.016 0.024 0 0.040 0 0.064-0.008 0.032 0 0.064 0 0.096-0.008 0.016 0 0.032 0 0.048 0 0.048 0 0.104 0 0.152 0s0.104 0 0.152 0c0.016 0 0.032 0 0.048 0 0.032 0.008 0.072 0.008 0.104 0.008 0.016 0.008 0.040 0.008 0.056 0.008 0.032 0.008 0.056 0.008 0.088 0.016 0.024 0 0.040 0 0.064 0.008 0.024 0 0.056 0.008 0.080 0.016 0.024 0 0.040 0.008 0.064 0.008 0.024 0.008 0.056 0.016 0.080 0.024 0.024 0 0.040 0.008 0.064 0.008 0.024 0.008 0.056 0.016 0.080 0.024 0.016 0.008 0.040 0.016 0.056 0.016 0.032 0.008 0.056 0.024 0.088 0.032 0.016 0.008 0.032 0.008 0.048 0.016 0.032 0.016 0.064 0.024 0.096 0.032 0.008 0.008 0.024 0.016 0.040 0.024 0.040 0.016 0.088 0.032 0.128 0.056 0.008 0 0.008 0 0.008 0 0.040 0.024 0.080 0.040 0.12 0.064 0.016 0.008 0.024 0.016 0.040 0.024 0.032 0.008 0.056 0.024 0.080 0.040 0.016 0.008 0.032 0.024 0.048 0.032 0.024 0.016 0.048 0.032 0.072 0.048 0.016 0.008 0.040 0.016 0.056 0.032s0.040 0.032 0.064 0.048c0.016 0.008 0.032 0.016 0.048 0.032 0.024 0.016 0.040 0.032 0.064 0.048l0.048 0.040c0.024 0.016 0.040 0.032 0.064 0.048 0.016 0.016 0.024 0.032 0.040 0.040 0.024 0.024 0.040 0.040 0.064 0.056 0.016 0.016 0.024 0.032 0.040 0.040 0.024 0.024 0.048 0.048 0.064 0.072 0.016 0.008 0.024 0.016 0.032 0.032 0.032 0.032 0.064 0.064 0.096 0.104 0 0 0.008 0.008 0.008 0.008 0.024 0.032 0.048 0.064 0.080 0.096 0.008 0.016 0.016 0.024 0.024 0.040 0.016 0.024 0.040 0.048 0.056 0.072 0.008 0.016 0.016 0.032 0.032 0.048 0.016 0.024 0.032 0.048 0.048 0.072 0.008 0.016 0.016 0.032 0.024 0.048 0.016 0.024 0.032 0.048 0.048 0.072 0.008 0.016 0.016 0.032 0.024 0.048 0.016 0.024 0.024 0.048 0.040 0.072 0.008 0.016 0.016 0.040 0.024 0.056 0.016 0.024 0.024 0.048 0.040 0.072 0.008 0.016 0.016 0.040 0.016 0.056 0.016 0.024 0.024 0.056 0.040 0.080 0 0.016 0.008 0.032 0.016 0.048 0.008 0.032 0.024 0.064 0.032 0.096 0.008 0.016 0.008 0.024 0.016 0.040 0.016 0.040 0.024 0.088 0.040 0.136 0 0.008 0 0.016 0 0.024 0.016 0.040 0.024 0.072 0.032 0.112 0 0.016 0.008 0.032 0.008 0.048 0.008 0.024 0.008 0.048 0.016 0.080h2.072c0.104 0 0.184-0.088 0.184-0.184v-2.064h-0.784v-0.984h0.784v-1.264c0-0.6-0.36-1.128-0.928-1.344l-1.888-0.736h-7.144v6.576zM21.024 16.136h6.472l-1.816-4.16c-0.2-0.464-0.664-0.76-1.184-0.76h-3.472v4.92zM8.248 26.208c1.144 0 2.080-0.904 2.080-2.024s-0.936-2.024-2.080-2.024c-0.032 0-0.072 0-0.104 0-0.96 0.048-1.744 0.728-1.928 1.616-0.008 0.032-0.016 0.064-0.024 0.104-0.008 0.064-0.016 0.128-0.016 0.2-0.008 0.032-0.008 0.072-0.008 0.104 0 1.12 0.936 2.024 2.080 2.024zM1.008 20.464h0.784v0.984h-0.784v2.192c0 0.032 0.024 0.056 0.048 0.056h4.144c0.008-0.032 0.008-0.056 0.016-0.080 0-0.016 0.008-0.032 0.008-0.048 0.008-0.040 0.016-0.072 0.032-0.112 0-0.008 0-0.016 0-0.024 0.016-0.048 0.032-0.088 0.040-0.136 0.008-0.016 0.016-0.032 0.016-0.040 0.008-0.032 0.024-0.064 0.032-0.096 0.008-0.016 0.016-0.032 0.024-0.048 0.008-0.024 0.016-0.056 0.032-0.080 0.008-0.016 0.016-0.040 0.024-0.056 0.008-0.024 0.016-0.048 0.032-0.072 0.008-0.016 0.016-0.040 0.024-0.056 0.016-0.024 0.024-0.048 0.040-0.072 0.008-0.016 0.016-0.032 0.032-0.048 0.008-0.024 0.024-0.048 0.040-0.072 0.008-0.016 0.016-0.032 0.032-0.048 0.008-0.024 0.024-0.048 0.040-0.072 0.016-0.016 0.024-0.032 0.032-0.048 0.016-0.024 0.040-0.048 0.056-0.072 0.008-0.016 0.016-0.024 0.032-0.040 0.024-0.032 0.048-0.064 0.072-0.088 0-0.008 0.008-0.016 0.008-0.016 0.032-0.040 0.064-0.072 0.096-0.104 0.008-0.016 0.024-0.024 0.032-0.032 0.024-0.024 0.040-0.048 0.064-0.072 0.016-0.008 0.024-0.024 0.040-0.040 0.024-0.016 0.040-0.032 0.064-0.056 0.016-0.008 0.032-0.024 0.040-0.040 0.024-0.016 0.048-0.032 0.064-0.048s0.032-0.024 0.048-0.040c0.024-0.016 0.040-0.032 0.064-0.048 0.016-0.016 0.032-0.024 0.048-0.032 0.024-0.016 0.048-0.032 0.072-0.048 0.016-0.016 0.032-0.024 0.048-0.032 0.024-0.016 0.048-0.032 0.072-0.048 0.016-0.008 0.032-0.024 0.048-0.032 0.024-0.016 0.048-0.032 0.080-0.040 0.016-0.008 0.024-0.016 0.040-0.024 0.040-0.024 0.080-0.040 0.12-0.064 0 0 0.008 0 0.008 0 0.040-0.024 0.088-0.040 0.128-0.056 0.016-0.008 0.032-0.016 0.048-0.024 0.024-0.008 0.056-0.016 0.088-0.032 0.016-0.008 0.032-0.008 0.056-0.016s0.048-0.024 0.080-0.032c0.016 0 0.040-0.008 0.056-0.016 0.032-0.008 0.056-0.016 0.080-0.024 0.024 0 0.040-0.008 0.064-0.008 0.024-0.008 0.056-0.016 0.080-0.024 0.024 0 0.040-0.008 0.064-0.008 0.024-0.008 0.056-0.016 0.080-0.016 0.024-0.008 0.040-0.008 0.064-0.008 0.032-0.008 0.056-0.008 0.088-0.016 0.024 0 0.040 0 0.056-0.008 0.040 0 0.072 0 0.104-0.008 0.016 0 0.032 0 0.048 0 0.048 0 0.104 0 0.152 0s0.104 0 0.152 0c0.016 0 0.032 0 0.048 0 0.032 0.008 0.064 0.008 0.104 0.008 0.016 0.008 0.032 0.008 0.056 0.008 0.032 0.008 0.056 0.008 0.088 0.016 0.024 0 0.040 0 0.064 0.008 0.024 0 0.056 0.008 0.080 0.016 0.024 0 0.040 0.008 0.064 0.008 0.024 0.008 0.056 0.016 0.080 0.024 0.024 0 0.040 0.008 0.064 0.008 0.024 0.008 0.056 0.016 0.080 0.024 0.016 0.008 0.040 0.016 0.056 0.016 0.032 0.008 0.056 0.024 0.088 0.032 0.016 0.008 0.032 0.008 0.048 0.016 0.032 0.016 0.064 0.024 0.096 0.032 0.008 0.008 0.024 0.016 0.040 0.024 0.040 0.016 0.088 0.032 0.128 0.056 0.008 0 0.008 0 0.008 0 0.040 0.024 0.080 0.040 0.12 0.064 0.016 0.008 0.024 0.016 0.040 0.024 0.032 0.008 0.056 0.024 0.080 0.040 0.016 0.008 0.032 0.024 0.048 0.032 0.024 0.016 0.048 0.032 0.072 0.048 0.016 0.008 0.032 0.016 0.056 0.032 0.016 0.016 0.040 0.032 0.064 0.048 0.016 0.008 0.032 0.016 0.048 0.032 0.024 0.016 0.040 0.032 0.064 0.048 0.016 0.016 0.032 0.024 0.048 0.040s0.040 0.032 0.064 0.048c0.008 0.016 0.024 0.032 0.040 0.040 0.024 0.024 0.040 0.040 0.064 0.056 0.016 0.016 0.024 0.032 0.040 0.040 0.024 0.024 0.048 0.048 0.064 0.072 0.016 0.008 0.024 0.016 0.032 0.032 0.032 0.032 0.064 0.064 0.096 0.104 0 0 0.008 0.008 0.008 0.008 0.024 0.032 0.048 0.064 0.072 0.096 0.016 0.016 0.024 0.024 0.032 0.040 0.016 0.024 0.040 0.048 0.056 0.072 0.008 0.016 0.016 0.032 0.032 0.048 0.016 0.024 0.032 0.048 0.040 0.072 0.016 0.016 0.024 0.032 0.032 0.048 0.016 0.024 0.032 0.048 0.040 0.072 0.016 0.016 0.024 0.032 0.032 0.048 0.016 0.024 0.024 0.048 0.040 0.072 0.008 0.016 0.016 0.040 0.024 0.056 0.016 0.024 0.024 0.048 0.032 0.072 0.008 0.016 0.016 0.040 0.024 0.056 0.016 0.024 0.024 0.056 0.040 0.080 0 0.016 0.008 0.032 0.016 0.048 0.008 0.032 0.024 0.064 0.032 0.096 0.008 0.016 0.008 0.024 0.016 0.040 0.008 0.040 0.024 0.088 0.040 0.136 0 0.008 0 0.016 0 0.024 0.016 0.032 0.024 0.072 0.032 0.112 0 0.016 0.008 0.032 0.008 0.048 0.008 0.024 0.008 0.048 0.016 0.080h8.712v-14.632c0-0.272 0.232-0.488 0.504-0.488h7.296c0.016 0 0.048 0 0.072-0.048 0.024-0.040 0.008-0.072 0-0.080l-1.576-2.312c-0.16-0.224-0.408-0.352-0.688-0.352h-13.168c-0.080 0-0.144 0.024-0.2 0.072l-0.832 0.816c-0.24 0.24-0.568 0.368-0.912 0.368h-8.68c-0.456 0-0.816 0.36-0.816 0.8v12.624z"></path>
<path d="M14.080 9.832h3.184c0.648 0 1.176 0.512 1.176 1.144v10.528c0 0.272-0.232 0.496-0.504 0.496h-4.52c-0.28 0-0.504-0.224-0.504-0.496v-10.528c0-0.632 0.52-1.144 1.168-1.144zM13.92 21.016h3.504v-5.792h-3.504v5.792zM13.92 14.24h3.504v-3.264c0-0.088-0.072-0.16-0.16-0.16h-3.184c-0.088 0-0.16 0.072-0.16 0.16v3.264zM3.872 9.832h6.168c0.712 0 1.296 0.568 1.296 1.264v2.872c0 0.696-0.584 1.264-1.296 1.264h-6.168c-0.712 0-1.296-0.568-1.296-1.264v-2.872c0-0.696 0.584-1.264 1.296-1.264zM3.584 13.968c0 0.152 0.128 0.272 0.288 0.272h6.168c0.16 0 0.288-0.12 0.288-0.272v-2.872c0-0.152-0.128-0.28-0.288-0.28h-6.168c-0.16 0-0.288 0.128-0.288 0.28v2.872z"></path>
</symbol>
<symbol id="icon-beds" viewBox="0 0 32 32">
<path fill="none" stroke="#101828" stroke-linejoin="round" stroke-linecap="round" stroke-miterlimit="4" stroke-width="2.24" d="M6 14.992v-6.496c0-0.672 0.256-1.296 0.72-1.776 0.48-0.464 1.104-0.72 1.776-0.72h14.992c0.672 0 1.296 0.256 1.776 0.72 0.464 0.48 0.72 1.104 0.736 1.776v6.496h-20zM2.992 26v-7.008c0-1.056 0.432-2.080 1.168-2.832 0.752-0.736 1.776-1.168 2.832-1.168h18c1.056 0 2.080 0.432 2.832 1.168 0.736 0.752 1.168 1.776 1.168 2.832v7.008"></path>
<path fill="none" stroke="#101828" stroke-linejoin="round" stroke-linecap="butt" stroke-miterlimit="4" stroke-width="2.24" d="M2.992 26v-0.512c0-0.4 0.16-0.768 0.448-1.056 0.272-0.288 0.656-0.432 1.056-0.432h22.992c0.4 0 0.784 0.144 1.056 0.432 0.288 0.288 0.448 0.656 0.448 1.056v0.512M6.992 14.992v-0.992c0-0.544 0.208-1.040 0.592-1.424 0.368-0.368 0.88-0.576 1.408-0.576h5.008c0.528 0 1.024 0.208 1.408 0.576 0.368 0.384 0.576 0.88 0.592 1.424v0.992M16 14c0-0.544 0.208-1.040 0.576-1.424 0.384-0.368 0.88-0.576 1.424-0.576h4.992c0.528 0 1.040 0.208 1.408 0.576 0.384 0.384 0.592 0.88 0.592 1.424v0.992"></path>
</symbol>
<symbol id="icon-transmission" viewBox="0 0 33 33">
<path fill="none" stroke="#101828" stroke-width="2.5" stroke-linecap="round" stroke-linejoin="round" d="M23.1667 15.1667H25.1667C25.6971 15.1667 26.2058 14.956 26.5809 14.5809C26.956 14.2058 27.1667 13.6971 27.1667 13.1667C27.1667 12.6362 26.956 12.1275 26.5809 11.7525C26.2058 11.3774 25.6971 11.1667 25.1667 11.1667H23.1667V17.8333M23.1667 23.1667V28.5H24.5C25.2072 28.5 25.8855 28.219 26.3856 27.719C26.8857 27.2189 27.1667 26.5406 27.1667 25.8333C27.1667 25.1261 26.8857 24.4478 26.3856 23.9477C25.8855 23.4476 25.2072 23.1667 24.5 23.1667H23.1667ZM4.5 7.16667C4.5 7.87391 4.78095 8.55219 5.28105 9.05229C5.78115 9.55238 6.45942 9.83333 7.16667 9.83333C7.87391 9.83333 8.55219 9.55238 9.05229 9.05229C9.55238 8.55219 9.83333 7.87391 9.83333 7.16667C9.83333 6.45942 9.55238 5.78115 9.05229 5.28105C8.55219 4.78095 7.87391 4.5 7.16667 4.5C6.45942 4.5 5.78115 4.78095 5.28105 5.28105C4.78095 5.78115 4.5 6.45942 4.5 7.16667Z" />
<path fill="none" stroke="#101828" stroke-width="2.5" stroke-linecap="round" stroke-linejoin="round" d="M7.16675 9.83333V13.8333C7.16675 14.187 7.30722 14.5261 7.55727 14.7761C7.80732 15.0262 8.14646 15.1667 8.50008 15.1667H12.5001M12.5001 15.1667V24.5C12.5001 24.8536 12.6406 25.1928 12.8906 25.4428C13.1407 25.6929 13.4798 25.8333 13.8334 25.8333H17.8334M12.5001 15.1667H17.8334" />
</symbol>
<symbol id="icon-kitchen" viewBox="0 0 32 32">
<path fill="none" stroke="#101828" stroke-width="2.5" stroke-linecap="round" stroke-linejoin="round" d="M25.8334 20.5V4.5C19.4121 10.6253 19.1361 15.592 19.1667 20.5H25.8334ZM25.8334 20.5V28.5H24.5001V24.5M11.1667 5.83333V28.5M7.16675 5.83333V9.83333C7.16675 10.8942 7.58818 11.9116 8.33832 12.6618C9.08847 13.4119 10.1059 13.8333 11.1667 13.8333C12.2276 13.8333 13.245 13.4119 13.9952 12.6618C14.7453 11.9116 15.1667 10.8942 15.1667 9.83333V5.83333"/>
</symbol>
<symbol id="icon-cd" viewBox="0 0 32 32">
<path stroke-linejoin="miter" stroke-linecap="butt" stroke-miterlimit="4" stroke-width="2.4" d="M16 28c-6.64 0-12-5.376-12-12 0-6.64 5.36-12 12-12 6.624 0 12 5.36 12 12 0 6.624-5.376 12-12 12z"></path>
<path stroke-linejoin="miter" stroke-linecap="round" stroke-miterlimit="4" stroke-width="2.4" d="M8.656 16c0-4.064 3.28-7.344 7.344-7.344"></path>
<path stroke-linejoin="miter" stroke-linecap="butt" stroke-miterlimit="4" stroke-width="2.4" d="M16 19.328c-1.856 0-3.344-1.488-3.344-3.328 0-1.856 1.488-3.344 3.344-3.344 1.84 0 3.328 1.488 3.328 3.344 0 1.84-1.488 3.328-3.328 3.328z"></path>
</symbol>
<symbol id="icon-hob" viewBox="0 0 32 32">
<path fill="none" stroke="#101828" style="stroke: var(--color1, #101828)" stroke-linejoin="miter" stroke-linecap="butt" stroke-miterlimit="4" stroke-width="2.4" d="M28 6.656c0.352 0 0.688 0.144 0.928 0.4 0.256 0.24 0.4 0.576 0.4 0.944v17.328c0 0.352-0.144 0.688-0.4 0.944-0.24 0.24-0.576 0.384-0.928 0.384h-24c-0.368 0-0.704-0.144-0.944-0.384-0.256-0.256-0.4-0.592-0.4-0.944v-17.328c0-0.368 0.144-0.704 0.4-0.944 0.24-0.256 0.576-0.4 0.944-0.4h24zM12 6.656v20"></path>
<path fill="none" stroke="#101828" style="stroke: var(--color1, #101828)" stroke-linejoin="round" stroke-linecap="butt" stroke-miterlimit="4" stroke-width="2.4" d="M7.328 11.328v2.672M24.656 10.656l-8 11.344"></path>
<path d="M7.328 16.656c0.736 0 1.328 0.592 1.328 1.344 0 0.736-0.592 1.328-1.328 1.328s-1.328-0.592-1.328-1.328c0-0.752 0.592-1.344 1.328-1.344z"></path>
<path d="M7.328 20.656c0.736 0 1.328 0.592 1.328 1.344 0 0.736-0.592 1.328-1.328 1.328s-1.328-0.592-1.328-1.328c0-0.752 0.592-1.344 1.328-1.344z"></path>
</symbol>
<symbol id="icon-water" viewBox="0 0 32 32">
<path stroke-linejoin="miter" stroke-linecap="butt" stroke-miterlimit="4" stroke-width="2.4" d="M16 28.992c-5.536 0-9.008-3.472-9.008-8.992 0-5.936 6.448-13.936 8.432-16.256 0.064-0.080 0.16-0.144 0.256-0.192s0.208-0.064 0.32-0.064c0.096 0 0.208 0.016 0.304 0.064s0.192 0.112 0.256 0.192c1.984 2.32 8.432 10.32 8.432 16.256 0 5.52-3.472 8.992-8.992 8.992z"></path>
<path stroke-linejoin="round" stroke-linecap="round" stroke-miterlimit="4" stroke-width="2.4" d="M21.488 20.496c0 1.184-0.464 2.336-1.312 3.184-0.848 0.832-1.984 1.312-3.184 1.312"></path>
</symbol>
<symbol id="icon-pin" viewBox="0 0 32 32">
<path stroke-linejoin="round" stroke-linecap="butt" stroke-miterlimit="4" stroke-width="2.4" d="M16 30.656c0 0-12-8-12-17.328 0-3.184 1.264-6.24 3.504-8.48 2.256-2.256 5.312-3.52 8.496-3.52 3.168 0 6.224 1.264 8.48 3.52 2.24 2.24 3.52 5.296 3.52 8.48 0 9.328-12 17.328-12 17.328z"></path>
<path stroke-linejoin="round" stroke-linecap="butt" stroke-miterlimit="4" stroke-width="2.4" d="M16 17.328c-2.224 0-4-1.792-4-4s1.776-4 4-4c2.208 0 4 1.792 4 4s-1.792 4-4 4z"></path>
</symbol>
<symbol id="icon-gas" viewBox="0 0 32 32">
<path d="M25.056 13.984c-0.368-0.448-0.8-0.848-1.216-1.232-1.072-0.912-2.288-1.568-3.312-2.512-2.384-2.208-2.912-5.856-1.392-8.64-1.52 0.336-2.848 1.12-3.984 1.984-4.144 3.152-5.776 8.688-3.824 13.456 0.064 0.144 0.128 0.304 0.128 0.496 0 0.336-0.24 0.64-0.56 0.752-0.368 0.16-0.752 0.064-1.056-0.176-0.096-0.080-0.176-0.16-0.224-0.256-1.808-2.16-2.096-5.264-0.88-7.744-2.672 2.064-4.128 5.536-3.92 8.816 0.096 0.752 0.192 1.504 0.464 2.256 0.224 0.912 0.656 1.824 1.136 2.624 1.728 2.608 4.72 4.48 7.936 4.864 3.424 0.4 7.088-0.176 9.712-2.416 2.912-2.512 3.936-6.528 2.432-9.968l-0.208-0.4c-0.336-0.688-1.232-1.904-1.232-1.904zM20.016 23.504c-0.448 0.368-1.184 0.752-1.76 0.912-1.792 0.592-3.584-0.24-4.64-1.248 1.904-0.416 3.040-1.744 3.376-3.088 0.272-1.216-0.24-2.208-0.448-3.376-0.192-1.12-0.16-2.064 0.272-3.12 0.304 0.576 0.624 1.152 1.008 1.616 1.232 1.504 3.168 2.176 3.584 4.224 0.064 0.208 0.096 0.416 0.096 0.656 0.048 1.232-0.528 2.592-1.488 3.424z"></path>
</symbol>
<symbol id="icon-toilet" viewBox="0 0 32 32">
<path d="M24 4c1.936 0 3.264 1.632 4.032 3.312 0.768 1.648 1.232 3.808 1.28 6.144l0.016 0.544v12.656c0 0.176-0.032 0.368-0.112 0.528-0.064 0.16-0.176 0.32-0.304 0.432-0.128 0.128-0.272 0.224-0.448 0.288-0.16 0.064-0.352 0.096-0.528 0.096l-0.16-0.032-3.776-0.624-3.792 0.624c-0.16 0.032-0.32 0.032-0.48 0l-0.16-0.048-3.568-1.184-3.584 1.184c-0.192 0.064-0.384 0.080-0.592 0.064-0.192-0.032-0.384-0.096-0.544-0.192-0.176-0.112-0.304-0.256-0.416-0.416-0.112-0.176-0.176-0.368-0.192-0.56l-0.016-0.16v-3.904c-0.704 0.736-1.584 1.248-2.656 1.248-1.952 0-3.28-1.648-4.048-3.328-0.816-1.776-1.296-4.144-1.296-6.672 0-2.544 0.48-4.912 1.296-6.688 0.736-1.6 1.984-3.168 3.776-3.312h16.272zM24 6.656h-12.304c0.128 0.208 0.24 0.432 0.336 0.656 0.816 1.776 1.296 4.144 1.296 6.688v10.816l2.24-0.752c0.272-0.096 0.576-0.096 0.848 0l3.68 1.232 3.68-0.624c0.144-0.016 0.288-0.016 0.432 0l2.448 0.416v-11.088c0-2.256-0.416-4.224-1.040-5.584-0.688-1.472-1.36-1.76-1.616-1.76zM8 6.656c-0.272 0-0.944 0.288-1.632 1.76-0.624 1.36-1.040 3.328-1.040 5.584 0 2.24 0.416 4.208 1.040 5.568 0.688 1.472 1.36 1.76 1.632 1.76 0.256 0 0.928-0.288 1.616-1.76 0.624-1.36 1.040-3.328 1.040-5.568 0-2.256-0.416-4.224-1.040-5.584-0.688-1.472-1.36-1.76-1.616-1.76zM8 11.328c0.736 0 1.328 1.184 1.328 2.672 0 1.472-0.592 2.656-1.328 2.656s-1.344-1.184-1.344-2.656c0-1.488 0.608-2.672 1.344-2.672z"></path>
</symbol>
<symbol id="icon-close" viewBox="0 0 32 32">
<path stroke-linejoin="round" stroke-linecap="round" stroke-miterlimit="4" stroke-width="3" d="M24 8l-16 16"></path>
<path stroke-linejoin="round" stroke-linecap="round" stroke-miterlimit="4" stroke-width="3" d="M8 8l16 16"></path>
</symbol>
<symbol id="icon-star" viewBox="0 0 34 32">
<path fill="#ffc531" style="fill: var(--color2, #ffc531)" d="M15.699 0.615l-4.469 8.464c-0.165 0.331-0.473 0.544-0.828 0.615l-9.433 1.631c-0.946 0.165-1.3 1.3-0.638 1.986l6.667 6.856c0.26 0.26 0.378 0.638 0.307 0.993l-1.348 9.481c-0.142 0.946 0.827 1.631 1.679 1.229l8.582-4.232c0.331-0.166 0.733-0.166 1.064 0l8.582 4.232c0.851 0.402 1.82-0.284 1.679-1.229l-1.348-9.481c-0.071-0.355 0.047-0.733 0.307-0.993l6.667-6.856c0.662-0.686 0.307-1.82-0.638-1.986l-9.433-1.631c-0.355-0.071-0.662-0.284-0.828-0.615l-4.468-8.464c-0.449-0.828-1.655-0.828-2.104 0z"></path>
<path fill="#ffc531" style="fill: var(--color2, #ffc531)" d="M11.23 9.079l4.468-8.464c0.449-0.828 1.655-0.828 2.104 0l4.468 8.464c0.166 0.331 0.473 0.544 0.828 0.615l9.433 1.631c0.946 0.165 1.3 1.3 0.638 1.986l-6.667 6.856c-0.26 0.26-0.378 0.638-0.307 0.993l1.348 9.481c0.142 0.946-0.828 1.631-1.679 1.229l-8.582-4.232c-0.331-0.166-0.733-0.166-1.064 0l-8.582 4.232c-0.851 0.402-1.821-0.284-1.679-1.229l1.348-9.481c0.071-0.355-0.047-0.733-0.307-0.993l-6.667-6.856c-0.662-0.686-0.307-1.82 0.638-1.986l9.433-1.631c0.355-0.071 0.662-0.284 0.828-0.615zM13.76 10.403c-0.591 1.111-1.655 1.868-2.884 2.081l-6.336 1.111 4.492 4.61c0.851 0.875 1.277 2.128 1.088 3.357l-0.922 6.384 5.769-2.837c1.135-0.567 2.435-0.567 3.546 0l5.793 2.837-0.922-6.384c-0.189-1.229 0.213-2.483 1.088-3.357l4.492-4.61-6.336-1.111c-1.229-0.213-2.293-0.969-2.884-2.081l-3.003-5.674-2.979 5.674z"></path>
</symbol>
<symbol id="icon-route" viewBox="0 0 32 32">
<path d="M6.656 4c-1.472 0-2.656 1.184-2.656 2.656s1.184 2.672 2.656 2.672c1.472 0 2.672-1.2 2.672-2.672s-1.2-2.656-2.672-2.656zM1.328 6.656c0-2.944 2.384-5.328 5.328-5.328s5.344 2.384 5.344 5.328c0 2.944-2.4 5.344-5.344 5.344s-5.328-2.4-5.328-5.344z"></path>
<path d="M25.328 22.656c-1.472 0-2.672 1.2-2.672 2.672s1.2 2.672 2.672 2.672c1.472 0 2.672-1.2 2.672-2.672s-1.2-2.672-2.672-2.672zM20 25.328c0-2.944 2.384-5.328 5.328-5.328s5.328 2.384 5.328 5.328c0 2.944-2.384 5.328-5.328 5.328s-5.328-2.384-5.328-5.328z"></path>
<path d="M13.328 6.656c0-0.736 0.592-1.328 1.328-1.328h8.4c4.128 0 5.616 5.408 1.984 7.424l-15.472 8.8c-1.152 0.656-0.784 2.448 0.688 2.448h7.072c0.736 0 1.328 0.592 1.328 1.328s-0.592 1.328-1.328 1.328h-7.072c-4.128 0-5.616-5.408-1.984-7.424l15.472-8.8c1.168-0.656 0.784-2.432-0.688-2.432h-8.4c-0.736 0-1.328-0.608-1.328-1.344z"></path>
</symbol>
<symbol id="icon-radio" viewBox="0 0 32 32">
<path stroke-linejoin="miter" stroke-linecap="butt" stroke-miterlimit="4" stroke-width="2.0800" d="M4.224 9.552c1.552-1.552 4.080-1.552 9.104-1.552h5.328c5.024 0 7.552 0 9.104 1.552 1.568 1.568 1.568 4.080 1.568 9.104s0 7.552-1.568 9.104c-1.552 1.568-4.080 1.568-9.104 1.568h-5.328c-5.024 0-7.552 0-9.104-1.568-1.568-1.552-1.568-4.080-1.568-9.104s0-7.536 1.568-9.104z"></path>
<path stroke-linejoin="miter" stroke-linecap="butt" stroke-miterlimit="4" stroke-width="2.0800" d="M7.44 12.768c0.496-0.496 1.184-0.768 1.888-0.768h13.328c0.704 0 1.392 0.272 1.888 0.768 0.496 0.512 0.784 1.184 0.784 1.888s-0.288 1.392-0.784 1.888c-0.496 0.496-1.184 0.784-1.888 0.784h-13.328c-0.704 0-1.392-0.288-1.888-0.784s-0.784-1.184-0.784-1.888c0-0.704 0.288-1.376 0.784-1.888zM11.408 24.080c-0.384 0.368-0.88 0.576-1.408 0.576-0.544 0-1.040-0.208-1.424-0.576-0.368-0.384-0.576-0.896-0.576-1.424s0.208-1.040 0.576-1.408c0.384-0.384 0.88-0.592 1.424-0.592 0.528 0 1.024 0.208 1.408 0.592 0.368 0.368 0.592 0.88 0.592 1.408s-0.224 1.040-0.592 1.424z"></path>
<path stroke-linejoin="miter" stroke-linecap="butt" stroke-miterlimit="4" stroke-width="2.0800" d="M20 15.328v2M17.328 22.656h6.672M8.656 8l11.344-5.344"></path>
</symbol>
<symbol id="icon-conditioner" viewBox="0 0 32 32">
<path stroke-linejoin="round" stroke-linecap="butt" stroke-miterlimit="4" stroke-width="2.4" d="M3.424 1.136c-0.608 0-1.184 0.24-1.616 0.672s-0.672 1.008-0.672 1.616v11.424c0 0.608 0.24 1.184 0.672 1.616s1.008 0.672 1.616 0.672h25.136c0.608 0 1.184-0.24 1.616-0.672s0.672-1.008 0.672-1.616v-11.424c0-0.608-0.24-1.184-0.672-1.616s-1.008-0.672-1.616-0.672h-25.136z"></path>
<path stroke-linejoin="round" stroke-linecap="butt" stroke-miterlimit="4" stroke-width="2.4" d="M25.136 17.136v-4.576c0-0.608-0.24-1.184-0.672-1.616s-1.008-0.672-1.616-0.672h-13.712c-0.608 0-1.184 0.24-1.616 0.672s-0.672 1.008-0.672 1.616v4.576M5.712 28.56h0.224c0.848 0 1.664-0.336 2.256-0.928 0.608-0.608 0.944-1.424 0.944-2.272v-2.512M26.272 28.56h-0.224c-0.848 0-1.664-0.336-2.256-0.928-0.608-0.608-0.944-1.424-0.944-2.272v-2.512M16 30.848v-8"></path>
</symbol>
<symbol id="icon-microwave" viewBox="0 0 32 32">
<path stroke-linejoin="round" stroke-linecap="butt" stroke-miterlimit="4" stroke-width="2.24" d="M2.272 5.712c-0.304 0-0.592 0.112-0.8 0.336-0.224 0.208-0.336 0.496-0.336 0.8v18.288c0 0.304 0.112 0.592 0.336 0.8 0.208 0.224 0.496 0.336 0.8 0.336h27.44c0.304 0 0.592-0.112 0.8-0.336 0.224-0.208 0.336-0.496 0.336-0.8v-18.288c0-0.304-0.112-0.592-0.336-0.8-0.208-0.224-0.496-0.336-0.8-0.336h-27.44z"></path>
<path stroke-linejoin="round" stroke-linecap="butt" stroke-miterlimit="4" stroke-width="2.24" d="M6.848 10.272c-0.304 0-0.592 0.128-0.8 0.336-0.224 0.224-0.336 0.512-0.336 0.816v9.136c0 0.304 0.112 0.592 0.336 0.816 0.208 0.208 0.496 0.336 0.8 0.336h12.576c0.304 0 0.592-0.128 0.8-0.336 0.224-0.224 0.336-0.512 0.336-0.816v-9.136c0-0.304-0.112-0.592-0.336-0.816-0.208-0.208-0.496-0.336-0.8-0.336h-12.576zM25.136 11.424h1.136M25.136 16h1.136"></path>
</symbol>
<symbol id="icon-ac" viewBox="0 0 32 32">
<path d="M15.488 3.2c-1.488 0-2.944 0.512-4.112 1.44-1.152 0.944-1.952 2.24-2.256 3.696l-0.112 0.576c-0.032 0.128-0.032 0.256-0.016 0.384 0.032 0.128 0.080 0.256 0.144 0.368 0.080 0.112 0.176 0.208 0.288 0.288 0.112 0.064 0.24 0.128 0.368 0.144 0.128 0.032 0.272 0.032 0.4 0s0.256-0.080 0.368-0.16c0.112-0.064 0.192-0.16 0.272-0.272 0.064-0.112 0.112-0.24 0.144-0.368l0.112-0.576c0.224-1.072 0.848-2.032 1.744-2.688 0.896-0.64 2-0.944 3.104-0.832 1.12 0.112 2.144 0.608 2.896 1.424 0.736 0.816 1.152 1.872 1.168 2.96 0 1.184-0.48 2.304-1.328 3.136s-1.984 1.296-3.184 1.296h-14.496c-0.272 0-0.512 0.112-0.704 0.288-0.192 0.192-0.288 0.448-0.288 0.704s0.096 0.512 0.288 0.688c0.192 0.192 0.432 0.304 0.704 0.304h14.496c1.696-0.048 3.312-0.736 4.496-1.936s1.856-2.8 1.856-4.464c0-1.68-0.672-3.28-1.856-4.48s-2.784-1.888-4.496-1.92zM26.992 12.048c-1.328 0-2.592 0.528-3.536 1.44-0.944 0.928-1.456 2.176-1.456 3.488 0 0.256 0.096 0.512 0.288 0.704 0.192 0.176 0.432 0.288 0.704 0.288s0.512-0.112 0.704-0.288c0.192-0.192 0.304-0.448 0.304-0.704 0-0.576 0.16-1.152 0.496-1.648 0.336-0.48 0.8-0.864 1.344-1.088 0.56-0.208 1.152-0.272 1.744-0.16 0.576 0.112 1.104 0.4 1.536 0.8 0.416 0.416 0.704 0.944 0.816 1.52s0.048 1.168-0.176 1.712c-0.224 0.528-0.608 0.992-1.104 1.328-0.496 0.32-1.072 0.496-1.664 0.496h-26c-0.272 0-0.512 0.096-0.704 0.288-0.192 0.176-0.288 0.432-0.288 0.688 0 0.272 0.096 0.512 0.288 0.704 0.192 0.176 0.432 0.288 0.704 0.288h19.504c0.656 0 1.296 0.256 1.76 0.72s0.736 1.088 0.736 1.744c0 0.656-0.272 1.28-0.736 1.744-0.48 0.448-1.104 0.72-1.776 0.704-0.592 0-1.168-0.208-1.632-0.576-0.448-0.384-0.752-0.912-0.864-1.488v-0.064c-0.016-0.128-0.064-0.256-0.144-0.368-0.064-0.112-0.144-0.208-0.256-0.288s-0.24-0.128-0.368-0.16c-0.128-0.032-0.256-0.048-0.4-0.016-0.128 0.016-0.256 0.064-0.368 0.144-0.112 0.064-0.208 0.16-0.288 0.256-0.064 0.112-0.128 0.24-0.144 0.368-0.032 0.128-0.032 0.256-0.016 0.384l0.016 0.064c0.176 1.040 0.72 1.984 1.536 2.672 0.816 0.672 1.856 1.056 2.928 1.056 1.2 0 2.336-0.48 3.184-1.312 0.848-0.816 1.328-1.952 1.328-3.12 0-0.912-0.272-1.76-0.752-2.464h2.752c1.328 0 2.592-0.528 3.536-1.44 0.944-0.928 1.472-2.176 1.472-3.488s-0.528-2.56-1.472-3.488c-0.944-0.912-2.208-1.44-3.536-1.44z"></path>
<path d="M20.544 5.76c-0.176-0.224-0.352-0.432-0.56-0.64-1.184-1.2-2.784-1.888-4.496-1.92-0.512 0-1.024 0.048-1.504 0.176-0.96 0.224-1.84 0.656-2.608 1.264-0.496 0.4-0.912 0.864-1.264 1.376-0.416 0.608-0.72 1.264-0.912 1.984-0.016 0.112-0.048 0.224-0.080 0.336l-0.112 0.576c-0.032 0.128-0.032 0.256-0.016 0.384 0.032 0.128 0.080 0.256 0.144 0.368 0.080 0.112 0.176 0.208 0.288 0.288 0.112 0.064 0.24 0.128 0.368 0.144 0.128 0.032 0.272 0.032 0.4 0s0.256-0.080 0.368-0.16c0.112-0.064 0.192-0.16 0.272-0.272 0.064-0.112 0.112-0.24 0.144-0.368l0.112-0.576c0.048-0.256 0.128-0.496 0.224-0.72 0.304-0.784 0.832-1.456 1.52-1.968 0 0 0.016 0 0.016-0.016 0.752-0.544 1.664-0.832 2.592-0.848 0.016 0 0.032 0 0.064 0 0.080 0 0.176 0.016 0.272 0.016 0.048 0 0.112 0 0.16 0.016 1.12 0.112 2.144 0.608 2.896 1.424 0.048 0.064 0.096 0.112 0.144 0.176 0.448 0.528 0.752 1.152 0.912 1.824 0.064 0.304 0.096 0.64 0.112 0.96 0 0.384-0.064 0.768-0.16 1.12-0.112 0.432-0.288 0.848-0.528 1.232-0.176 0.272-0.4 0.544-0.64 0.784-0.224 0.224-0.448 0.416-0.704 0.576-0.384 0.24-0.8 0.432-1.248 0.56-0.064 0.016-0.112 0.032-0.176 0.048-0.032 0-0.080 0.016-0.112 0.016-0.304 0.064-0.624 0.096-0.944 0.096h-14.496c-0.272 0-0.512 0.112-0.704 0.288-0.192 0.192-0.288 0.448-0.288 0.704s0.096 0.512 0.288 0.688c0.192 0.192 0.432 0.304 0.704 0.304h14.496c0.112-0.016 0.224-0.016 0.336-0.016 0.064-0.016 0.144-0.016 0.208-0.032 0.016 0 0.032 0 0.032 0 0.224-0.032 0.464-0.064 0.672-0.112 1.232-0.272 2.368-0.88 3.248-1.776 0.048-0.048 0.112-0.112 0.16-0.16 0.528-0.592 0.96-1.248 1.248-1.968 0.224-0.608 0.384-1.232 0.432-1.872 0-0.16 0.016-0.32 0.016-0.464 0-0.72-0.128-1.44-0.368-2.096-0.208-0.624-0.528-1.216-0.928-1.744zM27.728 12.112c-0.24-0.048-0.48-0.064-0.736-0.064-1.328 0-2.592 0.528-3.536 1.44-0.128 0.144-0.256 0.272-0.368 0.416-0.064 0.080-0.144 0.176-0.208 0.272-0.576 0.816-0.88 1.792-0.88 2.8 0 0.16 0.032 0.32 0.112 0.464 0.048 0.080 0.096 0.16 0.176 0.24 0.128 0.128 0.304 0.208 0.48 0.256 0.064 0.016 0.144 0.032 0.224 0.032 0.272 0 0.512-0.112 0.704-0.288 0.192-0.192 0.304-0.448 0.304-0.704 0-0.576 0.16-1.152 0.496-1.648 0.112-0.16 0.256-0.32 0.4-0.464 0.272-0.256 0.592-0.464 0.944-0.624 0.432-0.16 0.88-0.24 1.328-0.208 0.144 0 0.272 0.016 0.416 0.048 0.48 0.096 0.928 0.304 1.312 0.608 0.080 0.064 0.144 0.128 0.224 0.192 0.416 0.416 0.704 0.944 0.816 1.52 0.032 0.192 0.048 0.384 0.064 0.576v0 0.016c-0.016 0.384-0.080 0.752-0.24 1.12 0 0.016-0.016 0.032-0.016 0.048-0.096 0.224-0.224 0.432-0.368 0.624-0.208 0.24-0.448 0.464-0.72 0.656-0.448 0.288-0.976 0.464-1.52 0.48-0.048 0.016-0.096 0.016-0.144 0.016h-26c-0.272 0-0.512 0.096-0.704 0.288-0.192 0.176-0.288 0.432-0.288 0.688 0 0.272 0.096 0.512 0.288 0.704 0.192 0.176 0.432 0.288 0.704 0.288h19.504c0.544 0 1.056 0.176 1.488 0.48 0.096 0.080 0.192 0.16 0.272 0.24 0.352 0.336 0.576 0.768 0.672 1.232 0.016 0.048 0.032 0.096 0.032 0.144 0.016 0.128 0.032 0.24 0.032 0.368 0 0.576-0.208 1.136-0.592 1.568-0.048 0.064-0.096 0.112-0.144 0.176-0.48 0.448-1.104 0.72-1.776 0.704-0.592 0-1.168-0.208-1.632-0.576-0.448-0.384-0.752-0.912-0.864-1.488v-0.064c-0.016-0.112-0.064-0.224-0.112-0.32 0-0.016-0.016-0.032-0.032-0.048-0.064-0.112-0.144-0.208-0.256-0.288s-0.224-0.128-0.352-0.16c0 0 0 0-0.016 0 0 0 0 0 0 0-0.064-0.016-0.128-0.032-0.192-0.032s-0.128 0-0.208 0.016c-0.096 0.016-0.192 0.048-0.272 0.096-0.032 0-0.064 0.016-0.096 0.048-0.112 0.064-0.208 0.16-0.288 0.256v0c-0.064 0.112-0.128 0.24-0.144 0.368-0.032 0.128-0.032 0.256-0.016 0.384l0.016 0.064c0.176 1.040 0.72 1.984 1.536 2.672 0.080 0.064 0.176 0.128 0.256 0.192 0.768 0.56 1.712 0.864 2.672 0.864 0.976 0 1.904-0.32 2.672-0.864 0.064-0.048 0.112-0.096 0.176-0.144 0.112-0.096 0.24-0.192 0.336-0.304 0.224-0.208 0.4-0.432 0.576-0.672 0.208-0.32 0.384-0.656 0.512-1.024 0.16-0.464 0.24-0.944 0.24-1.424 0-0.224-0.016-0.432-0.048-0.64 0-0.064-0.016-0.144-0.032-0.208-0.112-0.592-0.352-1.136-0.672-1.616h2.752c1.232 0 2.4-0.448 3.312-1.248 0.080-0.064 0.16-0.128 0.224-0.192 0.496-0.496 0.88-1.072 1.12-1.712 0.224-0.56 0.352-1.152 0.352-1.776 0-1.312-0.528-2.56-1.472-3.488-0.304-0.304-0.656-0.56-1.040-0.768-0.432-0.256-0.896-0.432-1.392-0.544-0.112-0.032-0.24-0.048-0.368-0.064z"></path>
</symbol>
<symbol id="icon-like" viewBox="0 0 32 32">
<path stroke-linejoin="round" stroke-linecap="butt" stroke-miterlimit="4" stroke-width="3.2" d="M25.948 3.562c-0.932-0.376-1.92-0.584-2.922-0.584-1.016 0-2.003 0.209-2.936 0.584-0.932 0.39-1.767 0.96-2.477 1.67l-1.475 1.475-1.475-1.475c-1.447-1.433-3.381-2.24-5.412-2.24s-3.979 0.807-5.412 2.24c-1.447 1.433-2.254 3.381-2.254 5.412s0.807 3.979 2.254 5.412l12.299 12.299 12.299-12.299c0.71-0.71 1.266-1.558 1.656-2.49s0.584-1.92 0.584-2.922c0-1.016-0.195-2.003-0.584-2.936s-0.946-1.767-1.656-2.477c-0.71-0.71-1.558-1.28-2.49-1.67z"></path>
</symbol>
<symbol id="icon-engine" viewBox="0 0 32 32">
<path d="M26.352 9.632l0.016-0.016-4.96-4.96-1.408 1.424 2.8 2.8c-1.248 0.48-2.144 1.68-2.144 3.12 0 0.432 0.096 0.864 0.256 1.264 0.176 0.416 0.416 0.768 0.72 1.088 0.624 0.624 1.472 0.976 2.368 0.976 0.48 0 0.912-0.112 1.328-0.288v9.616c0 0.352-0.144 0.688-0.4 0.944-0.24 0.256-0.576 0.4-0.928 0.4-0.368 0-0.704-0.144-0.944-0.4-0.256-0.256-0.4-0.592-0.4-0.944v-6c0-0.704-0.272-1.376-0.784-1.888-0.496-0.496-1.168-0.768-1.872-0.768h-1.344v-9.344c0-0.704-0.272-1.376-0.784-1.888-0.496-0.496-1.168-0.768-1.872-0.768h-8c-0.72 0-1.392 0.272-1.888 0.768-0.512 0.512-0.784 1.184-0.784 1.888v21.344h13.328v-10h2v6.656c0 0.88 0.352 1.728 0.976 2.352 0.624 0.64 1.472 0.992 2.368 0.992 0.432 0 0.864-0.096 1.264-0.256 0.416-0.176 0.768-0.416 1.088-0.736 0.304-0.304 0.56-0.672 0.72-1.072s0.256-0.832 0.256-1.28v-12.656c0-0.928-0.368-1.776-0.976-2.368zM16 18v7.328h-8v-9.328h8v2zM16 13.328h-8v-6.672h8v6.672zM24 13.328c-0.368 0-0.704-0.144-0.944-0.4-0.256-0.24-0.4-0.576-0.4-0.928 0-0.368 0.144-0.704 0.4-0.944 0.24-0.256 0.576-0.4 0.944-0.4 0.352 0 0.688 0.144 0.928 0.4 0.256 0.24 0.4 0.576 0.4 0.944 0 0.352-0.144 0.688-0.4 0.928-0.24 0.256-0.576 0.4-0.928 0.4z"></path>
</symbol>
<symbol id="icon-tv" viewBox="0 0 32 32">
<path stroke-linejoin="round" stroke-linecap="butt" stroke-miterlimit="4" stroke-width="1.8" d="M8 26c-2.22 0-4-1.79-4-4v-10c0-2.22 1.78-4 4-4h16c2.21 0 4 1.78 4 4v10c0 2.21-1.79 4-4 4h-16z"></path>
<path stroke-linejoin="round" stroke-linecap="round" stroke-miterlimit="4" stroke-width="1.8" d="M12 30h8"></path>
<path stroke-linejoin="round" stroke-linecap="round" stroke-miterlimit="4" stroke-width="1.8" d="M16 8l6-6"></path>
<path stroke-linejoin="round" stroke-linecap="round" stroke-miterlimit="4" stroke-width="1.8" d="M16 8l-6-6"></path>
</symbol>
<symbol id="icon-adults" viewBox="0 0 34 32">
<path d="M8.587 24.587h-4.889c-0.302 0-0.444-0.142-0.604-0.302-0.142-0.142-0.284-0.444-0.142-0.729 0.889-2.524 3.111-4.018 5.636-4.018 3.111 0 5.618-2.667 5.618-5.778s-2.507-6.062-5.618-6.062c-3.111 0-5.636 2.667-5.636 5.92 0 1.476 0.587 2.969 1.476 4-1.92 1.031-3.396 2.667-4.284 4.889-0.302 1.049-0.16 2.382 0.587 3.413s1.778 1.636 2.969 1.636h4.889c0.889 0 1.476-0.604 1.476-1.493s-0.587-1.476-1.476-1.476zM5.92 13.618c0-1.636 1.173-2.809 2.667-2.809 1.476 0 2.667 1.333 2.667 2.809 0 1.636-1.191 2.809-2.667 2.809-1.493 0-2.667-1.333-2.667-2.809z"></path>
<path d="M32.427 21.618c-1.031-2.809-3.111-4.889-5.476-6.062 1.333-1.191 2.080-2.969 2.080-5.049 0-3.84-2.969-6.951-6.524-6.951s-6.524 3.111-6.524 6.951c0 1.938 0.747 3.716 2.080 5.049-2.364 1.173-4.444 3.253-5.476 6.062-0.747 1.333-0.444 2.827 0.284 4 0.747 1.191 2.080 1.778 3.413 1.778h12.302c1.333 0 2.667-0.729 3.396-1.778 0.889-1.173 1.049-2.667 0.444-4zM18.809 10.667c0-2.222 1.618-4 3.556-4 1.92 0 3.556 1.778 3.556 4s-1.636 4-3.556 4c-1.938 0-3.556-1.938-3.556-4zM29.476 24c-0.16 0.142-0.444 0.587-0.889 0.587h-12.302c-0.587 0-0.889-0.444-0.889-0.587-0.142-0.16-0.444-0.747-0.142-1.333 1.173-3.111 4.142-5.191 7.253-5.191s6.080 2.080 7.253 5.191c0.16 0.587-0.142 1.173-0.284 1.333z"></path>
</symbol>
<symbol id="icon-shower" viewBox="0 0 32 32">
<path d="M15.050 18.364l-1.491 1.491 1.488 2.975 1.464-1.545-1.46-2.921z"></path>
<path d="M15.999 24.733l1.394 2.788 1.464-1.545-1.394-2.787-1.464 1.545z"></path>
<path d="M27.433 12.664l-1.445 1.526 2.776 1.328 1.445-1.526-2.776-1.328z"></path>
<path d="M21.413 12.002l2.679 1.281 1.445-1.526-2.625-1.255-1.5 1.5z"></path>
<path d="M19.237 21.315l1.783 2.377 1.395-1.473-1.783-2.377-1.395 1.473z"></path>
<path d="M19.415 18.22l-1.808-2.411-1.429 1.429 1.842 2.456 1.395-1.473z"></path>
<path d="M18.796 14.618l2.293 1.834 1.38-1.457-2.25-1.8-1.423 1.423z"></path>
<path d="M22.656 17.706l2.295 1.836 1.38-1.457-2.295-1.836-1.38 1.457z"></path>
<path d="M21.793 6.293l-1.64 1.64-1.545-1.545c-1.262-1.262-3.006-2.043-4.932-2.043s-3.67 0.781-4.932 2.043v0c-0.021 0.021-0.042 0.043-0.063 0.065-0.781-0.556-1.755-0.889-2.807-0.889-2.692 0-4.873 2.182-4.873 4.873 0 0 0 0 0 0v0 15.063h2v-15.063c0-0 0-0 0-0 0-1.587 1.286-2.873 2.873-2.873 0.609 0 1.174 0.19 1.639 0.513l-0.009-0.006c-0.504 0.942-0.801 2.060-0.801 3.248 0 1.927 0.78 3.671 2.041 4.935l1.545 1.545-1.495 1.495 1.25 1.25 13-13zM11.563 16.244l-1.406-1.406c-0.888-0.898-1.437-2.134-1.437-3.498 0-2.748 2.228-4.976 4.976-4.976 1.364 0 2.599 0.549 3.498 1.437l1.405 1.405z"></path>
</symbol>
</defs>
</svg>